<svg width="374" height="50" viewBox="0 0 374 50" fill="none" xmlns="http://www.w3.org/2000/svg">
<path fill-rule="evenodd" clip-rule="evenodd" d="M53.6575 2.86416C49.7467 6.84638 45.7368 11.0366 41.7384 15.2147C37.6826 19.453 33.6386 23.6788 29.7219 27.6625L17.4591 17.5354C16.7654 16.8533 15.818 16.4935 14.8468 16.5445C13.879 16.5988 12.9755 17.0569 12.3563 17.8103C11.7405 18.5604 11.4664 19.5378 11.6017 20.5051C11.7405 21.469 12.2717 22.331 13.0737 22.8842L27.8001 35.0479C29.1773 36.1882 31.1908 36.0931 32.4563 34.8306C37.1313 30.1318 42.0058 25.0289 46.8615 19.9457C50.8148 15.8072 54.7557 11.6817 58.5664 7.79782C64.3785 17.0549 60.6993 33.3493 30.6936 49.792L30.4511 49.9239L30.306 49.8417C-15.8052 24.6409 0.0192669 -0.291354 17.1346 0.00257351C17.6814 0.00257351 18.2354 0.0523054 18.7846 0.112849C25.6718 0.871801 28.9171 4.34651 30.4508 7.33704C31.9795 4.34883 35.2296 0.871746 42.1195 0.141079C46.2009 -0.316102 50.3216 0.703975 53.6575 2.86416Z" fill="#009688"/>
<path d="M86.1461 39.9538C85.6286 39.9538 85.2024 39.832 84.8676 39.5885C84.5632 39.3145 84.3501 38.9796 84.2283 38.5839L75.0046 9.36014L74.9132 8.94918C74.9132 8.70565 75.0046 8.49256 75.1872 8.30992C75.4003 8.09682 75.6438 7.99028 75.9178 7.99028H81.8995C82.3562 7.99028 82.7215 8.12727 82.9954 8.40124C83.2998 8.64477 83.4977 8.91874 83.589 9.22316L89.7991 29.8624L96.0548 9.22316C96.1461 8.8883 96.3288 8.59911 96.6027 8.35558C96.9072 8.11204 97.2877 7.99028 97.7443 7.99028H103.726C104 7.99028 104.228 8.09682 104.411 8.30992C104.594 8.49256 104.685 8.70565 104.685 8.94918C104.685 9.10139 104.67 9.23838 104.639 9.36014L95.3699 38.5839C95.2785 38.9796 95.0654 39.3145 94.7306 39.5885C94.4262 39.832 94.0152 39.9538 93.4977 39.9538H86.1461Z" fill="#009688"/>
<path d="M109.492 12.9218C109.157 12.9218 108.883 12.8152 108.67 12.6022C108.457 12.3586 108.35 12.0694 108.35 11.7346V7.488C108.35 7.15314 108.457 6.87917 108.67 6.66608C108.913 6.42255 109.187 6.30078 109.492 6.30078H115.199C115.534 6.30078 115.808 6.42255 116.021 6.66608C116.265 6.87917 116.387 7.15314 116.387 7.488V11.7346C116.387 12.0694 116.265 12.3586 116.021 12.6022C115.808 12.8152 115.534 12.9218 115.199 12.9218H109.492ZM109.492 39.9538C109.187 39.9538 108.913 39.8472 108.67 39.6341C108.457 39.3906 108.35 39.1166 108.35 38.8122V17.351C108.35 17.0162 108.457 16.7422 108.67 16.5291C108.913 16.316 109.187 16.2095 109.492 16.2095H115.199C115.534 16.2095 115.808 16.316 116.021 16.5291C116.265 16.7422 116.387 17.0162 116.387 17.351V38.8122C116.387 39.1471 116.265 39.421 116.021 39.6341C115.808 39.8472 115.534 39.9538 115.199 39.9538H109.492Z" fill="#009688"/>
<path d="M134.06 39.9538C127.606 39.9538 124.379 36.9248 124.379 30.867V22.4195H120.772C120.467 22.4195 120.194 22.313 119.95 22.0999C119.737 21.8563 119.63 21.5824 119.63 21.278V17.351C119.63 17.0162 119.737 16.7422 119.95 16.5291C120.194 16.316 120.467 16.2095 120.772 16.2095H124.379V8.67521C124.379 8.34036 124.486 8.06638 124.699 7.85329C124.942 7.6402 125.216 7.53366 125.521 7.53366H131.137C131.472 7.53366 131.746 7.6402 131.959 7.85329C132.172 8.06638 132.279 8.34036 132.279 8.67521V16.2095H137.987C138.321 16.2095 138.595 16.316 138.808 16.5291C139.052 16.7422 139.174 17.0162 139.174 17.351V21.278C139.174 21.6128 139.052 21.8868 138.808 22.0999C138.595 22.313 138.321 22.4195 137.987 22.4195H132.279V30.1821C132.279 31.2475 132.477 32.0542 132.872 32.6022C133.268 33.1501 133.907 33.4241 134.79 33.4241H138.397C138.732 33.4241 139.006 33.5458 139.219 33.7894C139.432 34.0025 139.539 34.2764 139.539 34.6113V38.8122C139.539 39.1166 139.432 39.3906 139.219 39.6341C139.006 39.8472 138.732 39.9538 138.397 39.9538H134.06Z" fill="#009688"/>
<path d="M150.39 40.4104C148.776 40.4104 147.3 40.106 145.961 39.4971C144.652 38.8579 143.617 37.9903 142.856 36.8944C142.125 35.7985 141.76 34.5961 141.76 33.2871C141.76 31.2171 142.612 29.5428 144.317 28.2643C146.052 26.9553 148.426 26.0573 151.44 25.5702L157.102 24.7026V24.1547C157.102 23.0283 156.874 22.2064 156.417 21.6889C155.961 21.1714 155.184 20.9127 154.088 20.9127C153.48 20.9127 152.962 21.0192 152.536 21.2323C152.14 21.4454 151.684 21.765 151.166 22.1912C150.77 22.5261 150.42 22.7696 150.116 22.9218C149.994 23.1349 149.842 23.2414 149.659 23.2414H144.362C144.058 23.2414 143.799 23.1501 143.586 22.9674C143.404 22.7544 143.327 22.5108 143.358 22.2369C143.388 21.4149 143.799 20.5017 144.591 19.4971C145.382 18.4621 146.585 17.5793 148.198 16.8487C149.811 16.1181 151.805 15.7528 154.18 15.7528C157.955 15.7528 160.755 16.59 162.582 18.2643C164.408 19.9081 165.321 22.1455 165.321 24.9766V38.8122C165.321 39.1166 165.215 39.3906 165.002 39.6341C164.789 39.8472 164.515 39.9538 164.18 39.9538H158.563C158.259 39.9538 157.985 39.8472 157.741 39.6341C157.528 39.3906 157.422 39.1166 157.422 38.8122V37.214C156.752 38.1577 155.824 38.934 154.636 39.5428C153.449 40.1212 152.034 40.4104 150.39 40.4104ZM152.673 35.0222C154.012 35.0222 155.093 34.5808 155.915 33.698C156.767 32.8152 157.193 31.5367 157.193 29.8624V29.3145L153.404 29.9538C150.846 30.4408 149.568 31.3541 149.568 32.6935C149.568 33.3936 149.857 33.9568 150.435 34.383C151.044 34.8092 151.79 35.0222 152.673 35.0222Z" fill="#009688"/>
<path d="M171.475 39.9538C171.141 39.9538 170.851 39.8472 170.608 39.6341C170.395 39.421 170.288 39.1471 170.288 38.8122V8.67521C170.288 8.34036 170.395 8.06638 170.608 7.85329C170.851 7.6402 171.141 7.53366 171.475 7.53366H177.183C177.518 7.53366 177.792 7.6402 178.005 7.85329C178.218 8.06638 178.325 8.34036 178.325 8.67521V38.8122C178.325 39.1166 178.218 39.3906 178.005 39.6341C177.792 39.8472 177.518 39.9538 177.183 39.9538H171.475Z" fill="#009688"/>
<path d="M196.135 40.4104C193.182 40.4104 190.67 39.9842 188.6 39.1318C186.53 38.2795 184.963 37.1531 183.897 35.7528C182.832 34.3525 182.269 32.8305 182.208 31.1866C182.208 30.9127 182.299 30.6843 182.482 30.5017C182.695 30.319 182.938 30.2277 183.212 30.2277H189.285C189.651 30.2277 189.94 30.2886 190.153 30.4104C190.396 30.5321 190.655 30.7452 190.929 31.0496C191.325 31.7802 191.934 32.3891 192.756 32.8761C193.608 33.3327 194.734 33.5611 196.135 33.5611C197.779 33.5611 199.042 33.3175 199.925 32.8305C200.807 32.313 201.249 31.6128 201.249 30.73C201.249 30.0907 201.021 29.5732 200.564 29.1775C200.107 28.7513 199.377 28.386 198.372 28.0816C197.368 27.7467 195.922 27.3815 194.034 26.9857C190.351 26.2551 187.596 25.144 185.769 23.6524C183.943 22.1608 183.03 20.0299 183.03 17.2597C183.03 15.3723 183.547 13.698 184.582 12.2369C185.648 10.7452 187.139 9.58845 189.057 8.76654C191.005 7.94462 193.258 7.53366 195.815 7.53366C198.494 7.53366 200.807 8.0055 202.756 8.94918C204.734 9.86243 206.241 11.0192 207.276 12.4195C208.342 13.7894 208.905 15.144 208.966 16.4834C208.966 16.7574 208.874 17.0009 208.692 17.214C208.509 17.3967 208.281 17.488 208.007 17.488H201.614C200.944 17.488 200.427 17.214 200.062 16.6661C199.879 16.0268 199.407 15.4941 198.646 15.0679C197.885 14.6113 196.941 14.383 195.815 14.383C194.537 14.383 193.547 14.6113 192.847 15.0679C192.147 15.5245 191.797 16.1942 191.797 17.077C191.797 17.9598 192.253 18.66 193.167 19.1775C194.08 19.6646 195.785 20.1668 198.281 20.6843C201.142 21.2018 203.41 21.8563 205.084 22.6478C206.789 23.4089 208.037 24.4134 208.829 25.6615C209.651 26.8792 210.062 28.4317 210.062 30.319C210.062 32.3891 209.468 34.1851 208.281 35.7072C207.094 37.2292 205.45 38.4012 203.349 39.2232C201.249 40.0146 198.844 40.4104 196.135 40.4104Z" fill="#009688"/>
<path d="M215.085 12.9218C214.75 12.9218 214.476 12.8152 214.263 12.6022C214.05 12.3586 213.944 12.0694 213.944 11.7346V7.488C213.944 7.15314 214.05 6.87917 214.263 6.66608C214.507 6.42255 214.781 6.30078 215.085 6.30078H220.793C221.128 6.30078 221.402 6.42255 221.615 6.66608C221.858 6.87917 221.98 7.15314 221.98 7.488V11.7346C221.98 12.0694 221.858 12.3586 221.615 12.6022C221.402 12.8152 221.128 12.9218 220.793 12.9218H215.085ZM215.085 39.9538C214.781 39.9538 214.507 39.8472 214.263 39.6341C214.05 39.3906 213.944 39.1166 213.944 38.8122V17.351C213.944 17.0162 214.05 16.7422 214.263 16.5291C214.507 16.316 214.781 16.2095 215.085 16.2095H220.793C221.128 16.2095 221.402 16.316 221.615 16.5291C221.858 16.7422 221.98 17.0162 221.98 17.351V38.8122C221.98 39.1471 221.858 39.421 221.615 39.6341C221.402 39.8472 221.128 39.9538 220.793 39.9538H215.085Z" fill="#009688"/>
<path d="M239.06 49.9994C236.137 49.9994 233.763 49.5276 231.936 48.5839C230.11 47.6402 228.801 46.5443 228.009 45.2962C227.218 44.0786 226.822 43.0588 226.822 42.2369C226.822 41.9324 226.944 41.6737 227.187 41.4606C227.431 41.2475 227.705 41.141 228.009 41.141H234.128C234.432 41.141 234.676 41.2018 234.859 41.3236C235.041 41.4758 235.209 41.7194 235.361 42.0542C235.665 42.7239 236.061 43.2414 236.548 43.6067C237.035 44.0025 237.796 44.2003 238.831 44.2003C240.14 44.2003 241.114 43.8655 241.754 43.1958C242.393 42.5565 242.713 41.4758 242.713 39.9538V36.8944C241.099 38.5687 238.892 39.4058 236.092 39.4058C233.017 39.4058 230.658 38.523 229.014 36.7574C227.401 34.9614 226.518 32.3282 226.366 28.8579L226.32 27.625C226.32 23.9111 227.142 21.004 228.786 18.9035C230.46 16.8031 232.895 15.7528 236.092 15.7528C237.644 15.7528 239.014 16.0572 240.201 16.6661C241.388 17.2445 242.378 18.0359 243.169 19.0405V17.3967C243.169 17.0618 243.276 16.7878 243.489 16.5748C243.702 16.3312 243.976 16.2095 244.311 16.2095H249.881C250.216 16.2095 250.49 16.3312 250.703 16.5748C250.947 16.7878 251.069 17.0618 251.069 17.3967V39.2688C251.069 42.7696 250.018 45.4332 247.918 47.2597C245.818 49.0862 242.865 49.9994 239.06 49.9994ZM238.694 33.2414C240.003 33.2414 240.977 32.8457 241.617 32.0542C242.256 31.2627 242.621 30.2582 242.713 29.0405C242.743 28.8274 242.758 28.3708 242.758 27.6706C242.758 26.9401 242.743 26.4834 242.713 26.3008C242.621 25.0527 242.256 24.0481 241.617 23.2871C240.977 22.4956 240.003 22.0999 238.694 22.0999C237.355 22.0999 236.381 22.5108 235.772 23.3327C235.163 24.1242 234.828 25.2353 234.767 26.6661L234.722 27.6706C234.722 29.4058 235.011 30.7757 235.589 31.7802C236.168 32.7544 237.203 33.2414 238.694 33.2414Z" fill="#009688"/>
<path d="M257.447 39.9538C257.143 39.9538 256.869 39.8472 256.626 39.6341C256.412 39.3906 256.306 39.1166 256.306 38.8122V17.351C256.306 17.0162 256.412 16.7422 256.626 16.5291C256.869 16.316 257.143 16.2095 257.447 16.2095H263.064C263.399 16.2095 263.673 16.316 263.886 16.5291C264.099 16.7422 264.205 17.0162 264.205 17.351V19.0862C265.027 18.0816 266.078 17.2749 267.356 16.6661C268.665 16.0572 270.157 15.7528 271.831 15.7528C273.566 15.7528 275.104 16.1486 276.443 16.9401C277.813 17.7315 278.878 18.9035 279.639 20.456C280.431 22.0085 280.826 23.8807 280.826 26.0725V38.8122C280.826 39.1166 280.72 39.3906 280.507 39.6341C280.294 39.8472 280.02 39.9538 279.685 39.9538H273.612C273.277 39.9538 272.988 39.8472 272.744 39.6341C272.531 39.421 272.425 39.1471 272.425 38.8122V26.3464C272.425 24.9766 272.09 23.9264 271.42 23.1958C270.781 22.4652 269.837 22.0999 268.589 22.0999C267.371 22.0999 266.412 22.4804 265.712 23.2414C265.012 23.972 264.662 25.007 264.662 26.3464V38.8122C264.662 39.1166 264.556 39.3906 264.342 39.6341C264.129 39.8472 263.855 39.9538 263.521 39.9538H257.447Z" fill="#009688"/>
<path d="M293.039 39.9538C292.795 39.9538 292.582 39.8624 292.4 39.6798C292.217 39.4971 292.126 39.284 292.126 39.0405L292.217 38.5382L303.541 8.99485C303.785 8.32513 304.272 7.99028 305.002 7.99028H307.925C308.655 7.99028 309.142 8.32513 309.386 8.99485L320.71 38.5382L320.801 39.0405C320.801 39.284 320.695 39.4971 320.482 39.6798C320.299 39.8624 320.086 39.9538 319.843 39.9538H317.696C317.392 39.9538 317.133 39.8776 316.92 39.7254C316.738 39.5428 316.616 39.3601 316.555 39.1775L313.998 32.6022H298.884L296.372 39.1775C296.129 39.695 295.748 39.9538 295.231 39.9538H293.039ZM300.208 28.8122H312.719L306.464 12.4195L300.208 28.8122Z" fill="#009688"/>
<path d="M326.234 48.6296C325.929 48.6296 325.671 48.5382 325.458 48.3556C325.275 48.1729 325.184 47.9142 325.184 47.5793V17.2597C325.184 16.9248 325.275 16.6661 325.458 16.4834C325.671 16.3008 325.929 16.2095 326.234 16.2095H328.152C328.486 16.2095 328.745 16.3008 328.928 16.4834C329.111 16.6661 329.202 16.9248 329.202 17.2597V19.2688C330.967 16.9248 333.479 15.7528 336.736 15.7528C339.932 15.7528 342.322 16.7726 343.905 18.8122C345.518 20.8213 346.371 23.3936 346.462 26.5291C346.493 26.864 346.508 27.3815 346.508 28.0816C346.508 28.7818 346.493 29.2993 346.462 29.6341C346.371 32.7391 345.518 35.3114 343.905 37.351C342.322 39.3906 339.932 40.4104 336.736 40.4104C333.479 40.4104 331.013 39.2536 329.339 36.9401V47.5793C329.339 47.8837 329.232 48.1273 329.019 48.3099C328.837 48.523 328.593 48.6296 328.289 48.6296H326.234ZM335.869 36.8487C338.06 36.8487 339.658 36.1638 340.663 34.7939C341.668 33.4241 342.216 31.628 342.307 29.4058C342.337 29.1014 342.353 28.66 342.353 28.0816C342.353 22.2369 340.191 19.3145 335.869 19.3145C333.738 19.3145 332.124 20.0299 331.028 21.4606C329.963 22.8609 329.4 24.52 329.339 26.4378C329.308 26.7726 329.293 27.3662 329.293 28.2186C329.293 29.0709 329.308 29.6646 329.339 29.9994C329.4 31.8563 329.978 33.4697 331.074 34.8396C332.2 36.179 333.799 36.8487 335.869 36.8487Z" fill="#009688"/>
<path d="M353.346 48.6296C353.041 48.6296 352.783 48.5382 352.569 48.3556C352.387 48.1729 352.295 47.9142 352.295 47.5793V17.2597C352.295 16.9248 352.387 16.6661 352.569 16.4834C352.783 16.3008 353.041 16.2095 353.346 16.2095H355.264C355.598 16.2095 355.857 16.3008 356.04 16.4834C356.222 16.6661 356.314 16.9248 356.314 17.2597V19.2688C358.079 16.9248 360.591 15.7528 363.848 15.7528C367.044 15.7528 369.434 16.7726 371.017 18.8122C372.63 20.8213 373.483 23.3936 373.574 26.5291C373.604 26.864 373.62 27.3815 373.62 28.0816C373.62 28.7818 373.604 29.2993 373.574 29.6341C373.483 32.7391 372.63 35.3114 371.017 37.351C369.434 39.3906 367.044 40.4104 363.848 40.4104C360.591 40.4104 358.125 39.2536 356.451 36.9401V47.5793C356.451 47.8837 356.344 48.1273 356.131 48.3099C355.948 48.523 355.705 48.6296 355.4 48.6296H353.346ZM362.98 36.8487C365.172 36.8487 366.77 36.1638 367.775 34.7939C368.779 33.4241 369.327 31.628 369.419 29.4058C369.449 29.1014 369.464 28.66 369.464 28.0816C369.464 22.2369 367.303 19.3145 362.98 19.3145C360.849 19.3145 359.236 20.0299 358.14 21.4606C357.075 22.8609 356.512 24.52 356.451 26.4378C356.42 26.7726 356.405 27.3662 356.405 28.2186C356.405 29.0709 356.42 29.6646 356.451 29.9994C356.512 31.8563 357.09 33.4697 358.186 34.8396C359.312 36.179 360.91 36.8487 362.98 36.8487Z" fill="#009688"/>
</svg>
