<svg width="240" height="240" viewBox="0 0 240 240" fill="none" xmlns="http://www.w3.org/2000/svg">
<rect width="240" height="240" fill="white"/>
<path fill-rule="evenodd" clip-rule="evenodd" d="M109 72H236V82H109V72Z" fill="#009688" stroke="#2C2C2C" stroke-width="3.38182" stroke-linecap="round" stroke-linejoin="round"/>
<path fill-rule="evenodd" clip-rule="evenodd" d="M127.211 84L126.412 167.336L127.211 84Z" fill="#009688"/>
<path d="M127.211 84L126.412 167.336" stroke="#2C2C2C" stroke-width="3.53458" stroke-linecap="round" stroke-linejoin="round"/>
<path d="M91.9121 72.1377H236.171V169.665H111.5" stroke="#2C2C2C" stroke-width="4.22728" stroke-linecap="round" stroke-linejoin="round"/>
<path d="M140.13 103.975C139.371 103.975 138.784 103.794 138.369 103.432C137.963 103.071 137.76 102.563 137.76 101.91C137.76 101.204 138.012 100.639 138.515 100.216C139.027 99.7923 139.83 99.5363 140.924 99.4481L142.301 99.3422V99.1304C142.301 98.7068 142.186 98.4023 141.956 98.217C141.727 98.0317 141.374 97.939 140.897 97.939C140.439 97.939 139.989 98.0096 139.547 98.1508C139.115 98.2832 138.74 98.4421 138.422 98.6274V96.986C138.678 96.8624 139.04 96.7389 139.508 96.6153C139.975 96.4829 140.514 96.4168 141.123 96.4168C141.44 96.4168 141.74 96.4432 142.023 96.4962C142.305 96.5403 142.548 96.6286 142.751 96.7609C142.962 96.5844 143.073 96.3682 143.082 96.1123H144.816C144.816 96.43 144.741 96.73 144.591 97.0124C144.441 97.2948 144.202 97.5331 143.876 97.7272C144.008 97.9037 144.101 98.1155 144.154 98.3626C144.216 98.6097 144.246 98.8921 144.246 99.2098V103.843H142.301V100.772L141.149 100.891C140.619 100.944 140.249 101.05 140.037 101.209C139.834 101.367 139.733 101.579 139.733 101.844C139.733 102.109 139.816 102.307 139.984 102.44C140.161 102.572 140.386 102.638 140.659 102.638C140.765 102.638 140.871 102.629 140.977 102.612C141.083 102.585 141.18 102.559 141.268 102.532L141.44 103.777C141.273 103.838 141.074 103.887 140.845 103.922C140.615 103.958 140.377 103.975 140.13 103.975Z" fill="black"/>
<path d="M150.409 103.975C149.783 103.975 149.275 103.856 148.887 103.618C148.508 103.38 148.238 103.075 148.08 102.704H147.974L147.762 103.843H146.253V96.5888H148.238V100.057C148.238 100.807 148.366 101.363 148.622 101.725C148.878 102.078 149.24 102.254 149.708 102.254C150.078 102.254 150.361 102.144 150.555 101.923C150.749 101.703 150.846 101.35 150.846 100.864V96.5888H152.832V101.301C152.832 102.157 152.624 102.819 152.21 103.287C151.804 103.746 151.203 103.975 150.409 103.975Z" fill="black"/>
<path d="M157.776 104.015C156.77 104.015 156.006 103.794 155.486 103.353C154.974 102.903 154.718 102.259 154.718 101.42V100.904C154.718 100.542 154.757 100.242 154.837 100.004C154.925 99.7658 155.04 99.5496 155.181 99.3554C155.322 99.1613 155.437 98.9892 155.525 98.8392C155.622 98.6803 155.671 98.5171 155.671 98.3494C155.671 98.1906 155.631 98.0802 155.552 98.0185C155.481 97.9479 155.384 97.9126 155.26 97.9126C155.102 97.9126 154.907 97.9655 154.678 98.0714L154.36 96.8271C154.607 96.6947 154.872 96.6065 155.155 96.5624C155.446 96.5094 155.702 96.4829 155.922 96.4829C156.505 96.4829 156.915 96.6241 157.153 96.9065C157.401 97.1801 157.524 97.5508 157.524 98.0185C157.524 98.292 157.484 98.5347 157.405 98.7465C157.325 98.9495 157.224 99.1613 157.1 99.3819C156.986 99.5849 156.884 99.7746 156.796 99.9511C156.717 100.128 156.677 100.384 156.677 100.719V101.222C156.677 101.654 156.77 101.972 156.955 102.175C157.149 102.369 157.423 102.466 157.776 102.466C158.155 102.466 158.424 102.365 158.583 102.162C158.751 101.95 158.835 101.668 158.835 101.315V100.031C158.835 99.7658 158.773 99.5584 158.649 99.4084C158.534 99.2495 158.336 99.1701 158.054 99.1701H157.987V98.1244H158.067C158.34 98.1244 158.543 98.0494 158.676 97.8993C158.808 97.7493 158.892 97.5596 158.927 97.3301C158.971 97.0919 158.993 96.8448 158.993 96.5888H160.966C160.966 97.1272 160.895 97.5728 160.754 97.9258C160.613 98.2788 160.366 98.5171 160.013 98.6406V98.6936C160.322 98.7818 160.529 98.9495 160.635 99.1966C160.75 99.4348 160.807 99.7084 160.807 100.017V101.367C160.807 102.241 160.551 102.903 160.039 103.353C159.527 103.794 158.773 104.015 157.776 104.015Z" fill="black"/>
<path d="M164.535 103.843V99.051C164.535 98.6803 164.447 98.4112 164.27 98.2435C164.103 98.0758 163.825 97.992 163.436 97.992C163.145 97.992 162.876 98.0317 162.629 98.1111C162.39 98.1905 162.165 98.2876 161.954 98.4023V96.8139C162.148 96.7256 162.421 96.6374 162.774 96.5491C163.127 96.4609 163.542 96.4168 164.019 96.4168C164.504 96.4168 164.932 96.4874 165.303 96.6286C165.682 96.7698 165.978 97.008 166.19 97.3434C166.41 97.6699 166.521 98.12 166.521 98.6936V103.843H164.535Z" fill="black"/>
<path d="M171.439 104.015C170.645 104.015 170.009 103.922 169.533 103.737C169.056 103.543 168.708 103.274 168.487 102.929C168.275 102.585 168.169 102.188 168.169 101.738C168.169 101.35 168.227 101.037 168.342 100.798C168.465 100.56 168.62 100.379 168.805 100.256C168.999 100.123 169.193 100.035 169.387 99.9908V99.9114C169.087 99.8143 168.809 99.6466 168.553 99.4084C168.297 99.1613 168.169 98.7995 168.169 98.3229C168.169 97.9964 168.244 97.6919 168.395 97.4096C168.553 97.1272 168.805 96.9021 169.149 96.7345C169.493 96.558 169.948 96.4697 170.512 96.4697C170.786 96.4697 171.051 96.4918 171.307 96.5359C171.563 96.5712 171.761 96.6241 171.902 96.6947L171.598 98.0317C171.527 98.0141 171.43 97.9964 171.307 97.9788C171.192 97.9523 171.073 97.939 170.949 97.939C170.676 97.939 170.473 98.0052 170.34 98.1376C170.208 98.2611 170.142 98.4244 170.142 98.6274C170.142 98.9539 170.265 99.1701 170.512 99.276C170.76 99.3731 171.029 99.4216 171.32 99.4216H171.598V100.653H171.32C170.94 100.653 170.654 100.719 170.46 100.851C170.274 100.984 170.182 101.2 170.182 101.5C170.182 101.659 170.217 101.818 170.287 101.976C170.367 102.126 170.499 102.254 170.685 102.36C170.87 102.457 171.135 102.506 171.479 102.506C171.973 102.506 172.308 102.4 172.485 102.188C172.67 101.976 172.763 101.72 172.763 101.42V96.5888H174.748V101.354C174.748 102.263 174.479 102.934 173.941 103.366C173.411 103.799 172.577 104.015 171.439 104.015Z" fill="black"/>
<path d="M184.187 103.975C183.561 103.975 183.053 103.856 182.665 103.618C182.286 103.38 182.017 103.075 181.858 102.704H181.752L181.54 103.843H180.031V96.5888H182.017V100.057C182.017 100.807 182.145 101.363 182.4 101.725C182.656 102.078 183.018 102.254 183.486 102.254C183.857 102.254 184.139 102.144 184.333 101.923C184.527 101.703 184.624 101.35 184.624 100.864V96.5888H186.61V101.301C186.61 102.157 186.402 102.819 185.988 103.287C185.582 103.746 184.982 103.975 184.187 103.975Z" fill="black"/>
<path d="M190.389 103.843V99.051C190.389 98.6803 190.301 98.4112 190.124 98.2435C189.956 98.0758 189.678 97.992 189.29 97.992C188.999 97.992 188.73 98.0317 188.483 98.1111C188.244 98.1905 188.019 98.2876 187.808 98.4023V96.8139C188.002 96.7256 188.275 96.6374 188.628 96.5491C188.981 96.4609 189.396 96.4168 189.873 96.4168C190.358 96.4168 190.786 96.4874 191.157 96.6286C191.536 96.7698 191.832 97.008 192.044 97.3434C192.264 97.6699 192.374 98.12 192.374 98.6936V103.843H190.389Z" fill="black"/>
<path d="M194.156 103.843V101.632C194.156 101.076 194.266 100.648 194.487 100.348C194.707 100.048 195.021 99.8364 195.427 99.7128L195.44 99.6599L194.023 99.1436V98.7995C194.023 98.367 194.151 97.9699 194.407 97.6081C194.663 97.2463 195.038 96.9595 195.532 96.7477C196.035 96.5271 196.644 96.4168 197.359 96.4168C198.356 96.4168 199.151 96.6506 199.742 97.1183C200.333 97.5772 200.629 98.2744 200.629 99.2098V103.843H198.643V99.329C198.643 98.8877 198.524 98.5568 198.286 98.3362C198.056 98.1155 197.73 98.0052 197.306 98.0052C196.9 98.0052 196.596 98.0935 196.393 98.27C196.19 98.4376 196.08 98.645 196.062 98.8921L197.24 99.4348L197.094 100.295C196.777 100.313 196.539 100.428 196.38 100.639C196.221 100.851 196.141 101.138 196.141 101.5V103.843H194.156Z" fill="black"/>
<path d="M205.752 104.015C204.605 104.015 203.771 103.75 203.25 103.221C202.738 102.682 202.482 101.906 202.482 100.891V96.5888H204.468V100.997C204.468 101.465 204.569 101.822 204.772 102.069C204.984 102.307 205.311 102.426 205.752 102.426C206.193 102.426 206.515 102.307 206.718 102.069C206.93 101.822 207.036 101.465 207.036 100.997V96.5888H209.022V100.891C209.022 101.906 208.761 102.682 208.241 103.221C207.729 103.75 206.899 104.015 205.752 104.015Z" fill="black"/>
<path d="M206.985 107.298V106.12C206.985 105.899 206.888 105.789 206.694 105.789C206.65 105.789 206.606 105.793 206.562 105.802C206.518 105.811 206.474 105.824 206.43 105.842L206.337 104.889C206.46 104.844 206.632 104.8 206.853 104.756C207.065 104.712 207.281 104.69 207.502 104.69C207.934 104.69 208.239 104.774 208.415 104.942C208.592 105.118 208.68 105.356 208.68 105.656V107.298H206.985Z" fill="black"/>
<path d="M213.639 103.975C212.853 103.975 212.24 103.816 211.799 103.499C211.366 103.172 211.062 102.722 210.885 102.148C210.718 101.566 210.634 100.891 210.634 100.123C210.634 98.8348 210.823 97.9037 211.203 97.3301C211.582 96.7477 212.147 96.4565 212.897 96.4565C213.206 96.4565 213.475 96.5182 213.705 96.6418C213.943 96.7565 214.133 96.9727 214.274 97.2904H214.327C214.45 96.9639 214.653 96.7433 214.936 96.6286C215.218 96.5138 215.523 96.4565 215.849 96.4565C216.458 96.4565 216.913 96.6197 217.213 96.9463C217.521 97.2728 217.676 97.7493 217.676 98.3759V103.843H215.69V98.7465C215.69 98.4729 215.646 98.2876 215.558 98.1906C215.47 98.0935 215.351 98.0449 215.201 98.0449C215.033 98.0449 214.905 98.0935 214.817 98.1906C214.737 98.2876 214.684 98.4509 214.658 98.6803H213.877C213.841 98.4244 213.775 98.2567 213.678 98.1773C213.581 98.0891 213.466 98.0449 213.334 98.0449C213.113 98.0449 212.941 98.2038 212.818 98.5215C212.703 98.8392 212.646 99.3775 212.646 100.136C212.646 100.887 212.734 101.465 212.91 101.871C213.087 102.268 213.431 102.466 213.943 102.466C214.155 102.466 214.327 102.44 214.459 102.387L214.658 103.803C214.375 103.918 214.036 103.975 213.639 103.975Z" fill="black"/>
<path d="M222.022 104.015C221.501 104.015 220.976 103.958 220.446 103.843C219.926 103.728 219.462 103.565 219.056 103.353L219.612 101.778C219.877 101.919 220.217 102.069 220.632 102.228C221.046 102.378 221.483 102.453 221.942 102.453C222.657 102.453 223.014 102.246 223.014 101.831C223.014 101.601 222.878 101.425 222.604 101.301C222.339 101.169 221.969 101.019 221.492 100.851C221.024 100.684 220.623 100.503 220.288 100.309C219.952 100.114 219.692 99.8761 219.507 99.5937C219.33 99.3113 219.242 98.9583 219.242 98.5347C219.242 97.8111 219.511 97.2772 220.049 96.933C220.596 96.5888 221.324 96.4168 222.233 96.4168C222.728 96.4168 223.173 96.4565 223.57 96.5359C223.967 96.6153 224.276 96.7168 224.497 96.8404V98.4023C224.268 98.2964 223.945 98.195 223.531 98.0979C223.116 97.992 222.714 97.939 222.326 97.939C221.594 97.939 221.227 98.1244 221.227 98.495C221.227 98.7068 221.369 98.8745 221.651 98.998C221.942 99.1127 222.348 99.2584 222.869 99.4348C223.557 99.6731 224.082 99.9599 224.444 100.295C224.815 100.622 225 101.098 225 101.725C225 102.122 224.907 102.497 224.722 102.85C224.546 103.194 224.241 103.477 223.809 103.697C223.376 103.909 222.781 104.015 222.022 104.015Z" fill="black"/>
<rect x="186" y="131" width="34" height="5" rx="2.5" fill="#DADADA"/>
<rect x="186" y="141" width="34" height="5" rx="2.5" fill="#DADADA"/>
<rect x="137.167" y="152.036" width="82.8546" height="5.07273" rx="2.53637" fill="#DADADA"/>
<rect x="130" y="170" width="28" height="14" fill="#2C2C2C"/>
<path d="M119 180H172C174.209 180 176 181.791 176 184C176 186.209 174.209 188 172 188H119V180Z" fill="#2C2C2C"/>
<path d="M141.616 136.888C142.23 136.888 142.758 136.708 143.198 136.347C143.646 135.987 143.869 135.469 143.869 134.795C143.869 134.281 143.692 133.84 143.338 133.473C142.985 133.099 142.507 132.913 141.907 132.913C141.499 132.913 141.162 132.969 140.895 133.083C140.635 133.196 140.428 133.346 140.274 133.533C140.121 133.72 139.974 133.961 139.834 134.254C139.7 134.548 139.577 134.825 139.463 135.085C139.397 135.226 139.276 135.336 139.103 135.416C138.929 135.496 138.729 135.536 138.502 135.536C138.235 135.536 137.988 135.429 137.761 135.216C137.541 134.995 137.431 134.705 137.431 134.344C137.431 133.997 137.534 133.634 137.741 133.253C137.955 132.866 138.262 132.499 138.662 132.152C139.069 131.804 139.573 131.527 140.174 131.32C140.775 131.107 141.446 131 142.187 131C142.834 131 143.425 131.09 143.959 131.27C144.493 131.444 144.957 131.698 145.351 132.031C145.745 132.365 146.042 132.752 146.242 133.193C146.443 133.634 146.543 134.107 146.543 134.615C146.543 135.282 146.396 135.856 146.102 136.337C145.815 136.811 145.401 137.275 144.86 137.729C145.381 138.009 145.818 138.33 146.172 138.69C146.533 139.051 146.803 139.451 146.983 139.892C147.164 140.326 147.254 140.796 147.254 141.304C147.254 141.911 147.13 142.499 146.883 143.066C146.643 143.634 146.286 144.141 145.812 144.588C145.338 145.029 144.774 145.376 144.119 145.63C143.472 145.877 142.754 146 141.967 146C141.166 146 140.448 145.856 139.814 145.569C139.18 145.282 138.656 144.925 138.242 144.498C137.834 144.064 137.524 143.617 137.31 143.156C137.103 142.696 137 142.315 137 142.015C137 141.628 137.123 141.317 137.37 141.083C137.624 140.843 137.938 140.723 138.312 140.723C138.499 140.723 138.679 140.78 138.852 140.893C139.026 141 139.14 141.13 139.193 141.284C139.54 142.212 139.911 142.903 140.304 143.356C140.705 143.804 141.266 144.027 141.987 144.027C142.401 144.027 142.798 143.927 143.178 143.727C143.565 143.52 143.883 143.216 144.13 142.816C144.383 142.415 144.51 141.951 144.51 141.424C144.51 140.643 144.296 140.032 143.869 139.591C143.442 139.144 142.848 138.921 142.087 138.921C141.953 138.921 141.746 138.934 141.466 138.961C141.186 138.987 141.005 139.001 140.925 139.001C140.558 139.001 140.274 138.911 140.074 138.73C139.874 138.543 139.774 138.286 139.774 137.959C139.774 137.639 139.894 137.382 140.134 137.188C140.374 136.988 140.732 136.888 141.206 136.888H141.616Z" fill="#009688"/>
<path d="M151.482 131.21H158.151C158.792 131.21 159.256 131.31 159.543 131.511C159.83 131.711 159.974 132.041 159.974 132.502C159.974 132.782 159.803 133.153 159.463 133.613C159.129 134.074 158.745 134.585 158.312 135.146C157.884 135.7 157.44 136.391 156.98 137.218C156.526 138.046 156.109 139.057 155.728 140.252C155.568 140.78 155.454 141.217 155.388 141.564C155.321 141.911 155.247 142.362 155.167 142.916C155.087 143.47 155.017 143.894 154.957 144.188C154.817 144.868 154.617 145.342 154.356 145.609C154.103 145.87 153.762 146 153.335 146C152.928 146 152.601 145.86 152.354 145.579C152.107 145.292 151.983 144.872 151.983 144.318C151.983 143.891 152.073 143.31 152.253 142.575C152.434 141.841 152.727 140.963 153.135 139.942C153.542 138.914 154.049 137.862 154.657 136.788C155.271 135.706 155.998 134.632 156.84 133.563H151.482C150.922 133.563 150.501 133.463 150.221 133.263C149.947 133.056 149.81 132.736 149.81 132.302C149.81 131.841 149.957 131.544 150.251 131.411C150.544 131.277 150.955 131.21 151.482 131.21Z" fill="#009688"/>
<path d="M163.802 146C163.388 146 163.031 145.866 162.73 145.599C162.43 145.332 162.28 144.959 162.28 144.478C162.28 144.071 162.423 143.72 162.71 143.427C162.998 143.133 163.351 142.986 163.772 142.986C164.192 142.986 164.55 143.133 164.843 143.427C165.144 143.714 165.294 144.064 165.294 144.478C165.294 144.952 165.144 145.326 164.843 145.599C164.55 145.866 164.202 146 163.802 146Z" fill="#009688"/>
<path d="M176.592 133.543H171.836L171.265 136.788C172.213 136.28 173.087 136.027 173.888 136.027C174.529 136.027 175.127 136.147 175.681 136.387C176.242 136.628 176.732 136.961 177.153 137.389C177.573 137.809 177.904 138.31 178.144 138.891C178.384 139.471 178.505 140.095 178.505 140.763C178.505 141.731 178.288 142.612 177.854 143.407C177.42 144.201 176.792 144.832 175.971 145.299C175.157 145.766 174.216 146 173.147 146C171.953 146 170.981 145.78 170.234 145.339C169.493 144.899 168.965 144.395 168.651 143.827C168.344 143.253 168.191 142.752 168.191 142.325C168.191 142.065 168.298 141.818 168.511 141.584C168.732 141.35 169.005 141.234 169.332 141.234C169.893 141.234 170.31 141.557 170.584 142.205C170.851 142.799 171.212 143.263 171.665 143.597C172.119 143.924 172.627 144.087 173.188 144.087C173.702 144.087 174.152 143.954 174.539 143.687C174.927 143.42 175.224 143.053 175.431 142.585C175.644 142.118 175.751 141.587 175.751 140.993C175.751 140.352 175.637 139.805 175.41 139.351C175.184 138.897 174.88 138.56 174.499 138.34C174.119 138.113 173.695 137.999 173.228 137.999C172.653 137.999 172.243 138.069 171.996 138.21C171.749 138.35 171.392 138.597 170.925 138.951C170.464 139.298 170.083 139.471 169.783 139.471C169.456 139.471 169.165 139.354 168.912 139.121C168.658 138.881 168.531 138.61 168.531 138.31C168.531 138.276 168.568 138.049 168.641 137.629L169.483 132.832C169.576 132.258 169.75 131.841 170.003 131.581C170.257 131.32 170.671 131.19 171.245 131.19H176.532C177.573 131.19 178.094 131.587 178.094 132.382C178.094 132.729 177.967 133.009 177.714 133.223C177.46 133.437 177.086 133.543 176.592 133.543Z" fill="#009688"/>
<path fill-rule="evenodd" clip-rule="evenodd" d="M82.0909 136.894C78.9657 134.519 51.8522 134.222 48.8118 136.896C45.7715 139.569 50.1949 145.321 38.4911 150.685C21.4275 158.506 3.1269 173.041 4.03228 184.108C4.70561 192.338 13.832 210.216 67.2638 208.935C120.695 207.653 130.578 192.375 129.975 184.522C129.275 175.411 105.348 151.766 88.3204 147.341C82.1402 145.735 86.3758 140.151 82.0909 136.894Z" fill="white" stroke="#2C2C2C" stroke-width="2.79872" stroke-linecap="round" stroke-linejoin="round"/>
<path fill-rule="evenodd" clip-rule="evenodd" d="M105.5 203C105.5 203 101.7 198.978 98.6149 194.315C95.2938 189.296 92.9151 183.258 92.0571 183.718C91.0085 184.28 92.7635 192.422 94.9684 198.259C96.3937 202.035 98.4999 204.5 98.4999 204.5L105.5 203Z" fill="#B9B9B9"/>
<path fill-rule="evenodd" clip-rule="evenodd" d="M24 202.5C24 202.5 23.1068 198.748 24.0295 193.232C25.0225 187.299 27.4015 181.258 26.4606 181.009C25.3106 180.705 21.0421 187.856 18.6727 193.631C17.1411 197.365 17 199.5 17 199.5L24 202.5Z" fill="#B9B9B9"/>
<path fill-rule="evenodd" clip-rule="evenodd" d="M109.434 77.7048C106.675 81.4975 92.9233 71.659 82.186 82.3963C81.6314 82.951 81.6682 97.8835 75.1985 95.5746C62.351 90.9893 64.0225 115.442 74.3239 110.168C80.5037 107.004 73.4715 129.391 55.6872 129.914C44.6957 130.237 22.6525 127.134 22.298 91.4197C22.0937 70.8432 35.17 43.1496 68.3843 42.1153C101.599 41.0809 116.041 68.6199 109.434 77.7048Z" fill="#2C2C2C" stroke="#2C2C2C" stroke-width="2.79872" stroke-linecap="round" stroke-linejoin="round"/>
<path d="M108.439 79.377C109.629 87.2614 105.851 89.8124 106.725 95.2112C107.565 100.409 112.837 96.8342 114.292 103.161C115.747 109.488 112.359 120.75 104.136 127.239C93.905 135.311 78.3656 129.319 79.2323 130.793" stroke="#2C2C2C" stroke-width="2.79872" stroke-linecap="round" stroke-linejoin="round"/>
<path fill-rule="evenodd" clip-rule="evenodd" d="M94.0308 94.8571C94.0308 92.7814 95.2561 91.0986 96.7677 91.0986C98.2792 91.0986 99.5044 92.7814 99.5044 94.8571C99.5044 96.9328 98.2792 98.6155 96.7677 98.6155C95.2561 98.6155 94.0308 96.9328 94.0308 94.8571Z" fill="#2C2C2C"/>
<path d="M98.28 84.8858C98.28 84.8858 94.9043 83.5662 91.8418 86.7551" stroke="#2C2C2C" stroke-width="2.79872" stroke-linecap="round" stroke-linejoin="round"/>
<path fill-rule="evenodd" clip-rule="evenodd" d="M96.4809 91.1482C98.5741 90.9248 100.295 89.5079 100.665 89.6141C101.388 89.8207 99.9511 92.476 98.7852 92.9527C97.6195 93.4292 95.5191 91.2506 96.4809 91.1482Z" fill="#2C2C2C"/>
<path fill-rule="evenodd" clip-rule="evenodd" d="M105.147 41.7236C110.354 44.8775 109.737 55.673 109.061 61.0848C108.832 62.9242 107.243 64.2305 105.389 64.2305C93.6523 64.2305 82.1046 67.1864 71.8113 72.8255L70.1392 73.7416C68.0752 74.8724 65.7568 72.8937 66.6062 70.6989C69.2866 63.7729 73.8147 53.1872 77.4396 50.3201C82.9577 45.9558 97.8514 37.3052 105.147 41.7236Z" fill="white" stroke="#2C2C2C" stroke-width="2.79872" stroke-linecap="round" stroke-linejoin="round"/>
<path fill-rule="evenodd" clip-rule="evenodd" d="M11.8936 53.9905C11.8936 41.8454 22.0772 32 34.639 32C47.201 32 57.3847 41.8454 57.3847 53.9905C57.3847 66.1355 47.201 75.981 34.639 75.981C22.0772 75.981 11.8936 66.1355 11.8936 53.9905Z" fill="#2C2C2C" stroke="#2C2C2C" stroke-width="2.79872" stroke-linecap="round" stroke-linejoin="round"/>
<path fill-rule="evenodd" clip-rule="evenodd" d="M97.8922 46.5361H97.856C96.866 46.5361 96.0632 47.5117 96.0632 48.7154V58.3162C96.0632 59.5199 96.866 60.4955 97.856 60.4955H97.8922C98.8823 60.4955 99.6848 59.5199 99.6848 58.3162V48.7154C99.6848 47.5117 98.8823 46.5361 97.8922 46.5361Z" fill="#FEBE00"/>
<path fill-rule="evenodd" clip-rule="evenodd" d="M90.7861 53.6461V53.6825C90.7861 54.6725 91.7769 55.4751 92.9992 55.4751H102.749C103.971 55.4751 104.962 54.6725 104.962 53.6825V53.6461C104.962 52.6561 103.971 51.8535 102.749 51.8535H92.9992C91.7769 51.8535 90.7861 52.6561 90.7861 53.6461Z" fill="#FEBE00"/>
<path d="M79.3145 130.958L79.5628 135.432" stroke="#2C2C2C" stroke-width="2.79872" stroke-linecap="round" stroke-linejoin="round"/>
<path d="M49.7371 129.591V136.426" stroke="#2C2C2C" stroke-width="2.79872" stroke-linecap="round" stroke-linejoin="round"/>
<path d="M59 143C59 143 53.2341 175.353 57.6895 203" stroke="#B9B9B9" stroke-width="2.79872" stroke-linecap="round" stroke-linejoin="round"/>
<ellipse cx="87" cy="104" rx="7" ry="3" fill="#FFBABA"/>
<path d="M104.262 117.549C104.262 117.549 96.8714 120.848 90.6589 112.809" stroke="#2C2C2C" stroke-width="2.79872" stroke-linecap="round" stroke-linejoin="round"/>
<path d="M148.886 111.978L152.023 116.723V111.934C152.023 111.622 152.088 111.39 152.22 111.236C152.356 111.079 152.537 111 152.764 111C152.998 111 153.183 111.079 153.319 111.236C153.454 111.39 153.522 111.622 153.522 111.934V118.266C153.522 118.973 153.229 119.326 152.643 119.326C152.497 119.326 152.365 119.304 152.248 119.26C152.131 119.22 152.021 119.154 151.918 119.063C151.816 118.971 151.72 118.865 151.633 118.744C151.545 118.62 151.457 118.493 151.369 118.365L148.31 113.675V118.392C148.31 118.7 148.238 118.933 148.096 119.09C147.953 119.247 147.77 119.326 147.546 119.326C147.316 119.326 147.131 119.247 146.992 119.09C146.853 118.929 146.783 118.696 146.783 118.392V112.181C146.783 111.917 146.812 111.71 146.871 111.56C146.94 111.395 147.056 111.262 147.217 111.159C147.378 111.053 147.552 111 147.739 111C147.885 111 148.01 111.024 148.112 111.071C148.218 111.119 148.31 111.183 148.387 111.264C148.467 111.344 148.548 111.449 148.628 111.577C148.713 111.705 148.799 111.838 148.886 111.978Z" fill="#707070"/>
<path d="M159.398 112.494H156.789L156.476 114.273C156.996 113.995 157.475 113.856 157.915 113.856C158.266 113.856 158.594 113.922 158.898 114.054C159.205 114.185 159.474 114.369 159.705 114.603C159.936 114.834 160.117 115.108 160.249 115.427C160.381 115.745 160.447 116.088 160.447 116.454C160.447 116.985 160.328 117.468 160.09 117.904C159.852 118.339 159.507 118.685 159.057 118.942C158.61 119.198 158.094 119.326 157.508 119.326C156.853 119.326 156.32 119.205 155.91 118.964C155.504 118.722 155.214 118.446 155.042 118.134C154.874 117.819 154.79 117.545 154.79 117.311C154.79 117.168 154.848 117.032 154.965 116.904C155.086 116.776 155.236 116.712 155.416 116.712C155.723 116.712 155.952 116.889 156.102 117.245C156.249 117.57 156.446 117.825 156.695 118.008C156.944 118.187 157.223 118.277 157.53 118.277C157.812 118.277 158.059 118.204 158.272 118.057C158.484 117.911 158.647 117.71 158.76 117.453C158.878 117.197 158.936 116.906 158.936 116.58C158.936 116.229 158.874 115.928 158.749 115.679C158.625 115.43 158.458 115.245 158.25 115.125C158.041 115 157.808 114.938 157.552 114.938C157.237 114.938 157.012 114.976 156.877 115.053C156.741 115.13 156.545 115.266 156.289 115.46C156.036 115.65 155.828 115.745 155.663 115.745C155.483 115.745 155.324 115.681 155.185 115.553C155.046 115.421 154.976 115.273 154.976 115.108C154.976 115.09 154.996 114.965 155.037 114.735L155.498 112.104C155.549 111.789 155.645 111.56 155.784 111.417C155.923 111.275 156.15 111.203 156.465 111.203H159.365C159.936 111.203 160.221 111.421 160.221 111.857C160.221 112.047 160.152 112.201 160.013 112.318C159.873 112.435 159.668 112.494 159.398 112.494Z" fill="#707070"/>
<path d="M164.055 118.436V113.439C163.125 114.153 162.499 114.51 162.177 114.51C162.023 114.51 161.885 114.449 161.765 114.328C161.647 114.204 161.589 114.061 161.589 113.9C161.589 113.713 161.647 113.576 161.765 113.488C161.882 113.4 162.089 113.287 162.385 113.147C162.828 112.939 163.182 112.719 163.445 112.488C163.713 112.258 163.949 112 164.154 111.714C164.359 111.428 164.492 111.253 164.555 111.187C164.617 111.121 164.734 111.088 164.906 111.088C165.1 111.088 165.256 111.163 165.373 111.313C165.49 111.463 165.549 111.67 165.549 111.934V118.222C165.549 118.958 165.298 119.326 164.796 119.326C164.573 119.326 164.394 119.251 164.258 119.101C164.123 118.951 164.055 118.729 164.055 118.436Z" fill="#707070"/>
<path d="M173.721 115.24C173.721 115.84 173.685 116.357 173.611 116.789C173.538 117.221 173.403 117.613 173.205 117.964C172.956 118.396 172.634 118.729 172.238 118.964C171.843 119.198 171.403 119.315 170.92 119.315C170.364 119.315 169.864 119.158 169.421 118.843C168.981 118.528 168.65 118.092 168.427 117.536C168.313 117.232 168.229 116.897 168.174 116.531C168.123 116.161 168.097 115.762 168.097 115.333C168.097 114.78 168.126 114.283 168.185 113.839C168.244 113.396 168.335 113.016 168.46 112.697C168.676 112.17 168.989 111.769 169.399 111.494C169.813 111.216 170.305 111.077 170.876 111.077C171.253 111.077 171.596 111.139 171.903 111.264C172.211 111.384 172.48 111.564 172.711 111.802C172.945 112.036 173.143 112.327 173.304 112.675C173.582 113.279 173.721 114.134 173.721 115.24ZM172.216 115.13C172.216 114.46 172.176 113.913 172.095 113.488C172.015 113.06 171.879 112.737 171.689 112.521C171.499 112.302 171.235 112.192 170.898 112.192C170.415 112.192 170.078 112.435 169.888 112.922C169.701 113.409 169.608 114.16 169.608 115.174C169.608 115.862 169.648 116.426 169.728 116.866C169.809 117.305 169.944 117.638 170.135 117.865C170.325 118.089 170.583 118.2 170.909 118.2C171.246 118.2 171.51 118.083 171.7 117.849C171.89 117.614 172.024 117.279 172.101 116.844C172.178 116.408 172.216 115.837 172.216 115.13Z" fill="#707070"/>
<path d="M174.842 117.624L176.643 114.993L175.127 112.653C174.984 112.426 174.876 112.232 174.803 112.071C174.734 111.906 174.699 111.749 174.699 111.599C174.699 111.445 174.767 111.308 174.902 111.187C175.041 111.062 175.21 111 175.407 111C175.634 111 175.81 111.068 175.935 111.203C176.063 111.335 176.238 111.582 176.462 111.945L177.67 113.9L178.961 111.945C179.067 111.78 179.157 111.639 179.23 111.522C179.307 111.405 179.38 111.308 179.45 111.231C179.519 111.154 179.596 111.097 179.68 111.06C179.768 111.02 179.869 111 179.982 111C180.187 111 180.354 111.062 180.482 111.187C180.614 111.308 180.68 111.452 180.68 111.621C180.68 111.866 180.539 112.199 180.257 112.62L178.67 114.993L180.378 117.624C180.531 117.854 180.643 118.046 180.713 118.2C180.782 118.35 180.817 118.493 180.817 118.629C180.817 118.757 180.786 118.874 180.724 118.98C180.661 119.086 180.574 119.171 180.46 119.233C180.347 119.295 180.218 119.326 180.076 119.326C179.922 119.326 179.792 119.293 179.686 119.227C179.58 119.165 179.493 119.086 179.428 118.991C179.362 118.896 179.239 118.711 179.06 118.436L177.643 116.207L176.138 118.502C176.021 118.685 175.936 118.814 175.885 118.887C175.837 118.96 175.779 119.031 175.709 119.101C175.64 119.171 175.557 119.225 175.462 119.266C175.367 119.306 175.255 119.326 175.127 119.326C174.929 119.326 174.765 119.266 174.633 119.145C174.505 119.024 174.441 118.848 174.441 118.618C174.441 118.347 174.574 118.015 174.842 117.624Z" fill="#707070"/>
<path d="M181.641 117.624L183.442 114.993L181.927 112.653C181.784 112.426 181.676 112.232 181.602 112.071C181.533 111.906 181.498 111.749 181.498 111.599C181.498 111.445 181.566 111.308 181.701 111.187C181.84 111.062 182.009 111 182.207 111C182.434 111 182.609 111.068 182.734 111.203C182.862 111.335 183.038 111.582 183.261 111.945L184.469 113.9L185.76 111.945C185.866 111.78 185.956 111.639 186.029 111.522C186.106 111.405 186.179 111.308 186.249 111.231C186.318 111.154 186.395 111.097 186.48 111.06C186.567 111.02 186.668 111 186.782 111C186.987 111 187.153 111.062 187.281 111.187C187.413 111.308 187.479 111.452 187.479 111.621C187.479 111.866 187.338 112.199 187.056 112.62L185.469 114.993L187.177 117.624C187.331 117.854 187.443 118.046 187.512 118.2C187.582 118.35 187.616 118.493 187.616 118.629C187.616 118.757 187.585 118.874 187.523 118.98C187.461 119.086 187.373 119.171 187.259 119.233C187.146 119.295 187.018 119.326 186.875 119.326C186.721 119.326 186.591 119.293 186.485 119.227C186.379 119.165 186.293 119.086 186.227 118.991C186.161 118.896 186.038 118.711 185.859 118.436L184.442 116.207L182.937 118.502C182.82 118.685 182.736 118.814 182.684 118.887C182.637 118.96 182.578 119.031 182.509 119.101C182.439 119.171 182.357 119.225 182.262 119.266C182.166 119.306 182.055 119.326 181.927 119.326C181.729 119.326 181.564 119.266 181.432 119.145C181.304 119.024 181.24 118.848 181.24 118.618C181.24 118.347 181.374 118.015 181.641 117.624Z" fill="#707070"/>
<path d="M139.631 111.989V114.295H143.152V111.989C143.152 111.659 143.225 111.412 143.371 111.247C143.521 111.082 143.717 111 143.959 111C144.204 111 144.402 111.082 144.552 111.247C144.706 111.408 144.783 111.655 144.783 111.989V118.332C144.783 118.665 144.706 118.914 144.552 119.079C144.398 119.244 144.201 119.326 143.959 119.326C143.714 119.326 143.518 119.244 143.371 119.079C143.225 118.911 143.152 118.662 143.152 118.332V115.624H139.631V118.332C139.631 118.665 139.554 118.914 139.401 119.079C139.247 119.244 139.049 119.326 138.807 119.326C138.562 119.326 138.366 119.244 138.22 119.079C138.073 118.911 138 118.662 138 118.332V111.989C138 111.659 138.071 111.412 138.214 111.247C138.361 111.082 138.558 111 138.807 111C139.053 111 139.25 111.082 139.401 111.247C139.554 111.408 139.631 111.655 139.631 111.989Z" fill="#707070"/>
</svg>
