<svg width="240" height="240" viewBox="0 0 240 240" fill="none" xmlns="http://www.w3.org/2000/svg">
<rect width="240" height="240" fill="white"/>
<path d="M130.973 106.976L105.309 99.4434" stroke="#C3C3C3" stroke-width="5.32578" stroke-linecap="round" stroke-linejoin="round"/>
<path d="M128.419 118.085L109.778 112.595" stroke="#C3C3C3" stroke-width="5.32578" stroke-linecap="round" stroke-linejoin="round"/>
<path d="M124.844 129.703L107.99 125.362" stroke="#C3C3C3" stroke-width="5.32578" stroke-linecap="round" stroke-linejoin="round"/>
<path d="M121.142 143.111L98.7974 136.982" stroke="#C3C3C3" stroke-width="5.32578" stroke-linecap="round" stroke-linejoin="round"/>
<path d="M107.651 110.439C107.651 110.439 102.471 113.724 93.4158 114.935" stroke="#FEBE00" stroke-width="3.57285" stroke-linecap="round" stroke-linejoin="round"/>
<path fill-rule="evenodd" clip-rule="evenodd" d="M107.343 85.1393C104.702 88.7706 87.5826 80.911 77.3022 91.1915C71.25 97.2437 71.3601 112.869 72.1303 119.471C72.9007 126.074 73.3249 139.745 85.225 144.34C105.194 152.052 125.339 171.09 125.609 177.573C125.939 185.493 94.0414 202.004 63.8859 201.439C34.1283 200.881 5.01066 192.161 4.0096 176.144C3.68112 170.892 11.831 160.911 21.4688 153.641C29.5126 147.573 39.2783 143.849 39.559 142.029C40.1756 138.03 22.0628 118.261 21.6226 98.5641C21.1825 78.8672 33.947 52.3479 65.748 51.3575C97.5493 50.3672 113.669 76.441 107.343 85.1393Z" fill="white" stroke="#2C2C2C" stroke-width="2.67964" stroke-linecap="round" stroke-linejoin="round"/>
<path d="M73.7452 109.175C73.7452 109.175 78.0728 110.278 89.1544 109.435C98.3045 108.739 104.318 104.657 105.28 105.687C109.327 110.024 111.529 118.621 103.992 129.879C97.0006 140.323 81.302 141.872 81.302 141.872" stroke="#2C2C2C" stroke-width="2.67964" stroke-linecap="round" stroke-linejoin="round"/>
<path d="M104.099 87.0332C104.099 87.0332 104.829 90.4794 104.563 94.1193C104.269 98.1329 103.045 102.495 104.687 105.289" stroke="#2C2C2C" stroke-width="2.67964" stroke-linecap="round" stroke-linejoin="round"/>
<path fill-rule="evenodd" clip-rule="evenodd" d="M90.3031 101.854C90.3031 99.867 91.4763 98.2559 92.9236 98.2559C94.3708 98.2559 95.544 99.867 95.544 101.854C95.544 103.842 94.3708 105.453 92.9236 105.453C91.4763 105.453 90.3031 103.842 90.3031 101.854Z" fill="#2C2C2C"/>
<path d="M94.3717 92.309C94.3717 92.309 91.1396 91.0453 88.2074 94.0985" stroke="#2C2C2C" stroke-width="2.67964" stroke-linecap="round" stroke-linejoin="round"/>
<path fill-rule="evenodd" clip-rule="evenodd" d="M108.262 77.2324C114.251 80.1159 119.786 134.963 118.152 138.322C116.164 142.409 109.851 145.161 97.8503 147.785C85.8497 150.409 72.2312 152.798 67.9136 149.678C65.0187 147.585 55.3264 89.9404 56.6426 85.3338C57.1582 83.5296 70.7687 82.0214 83.8427 79.6307C95.1028 77.5716 106.322 76.2983 108.262 77.2324Z" stroke="#2C2C2C" stroke-width="2.67964" stroke-linecap="round" stroke-linejoin="round"/>
<path fill-rule="evenodd" clip-rule="evenodd" d="M52.1651 80.3621C53.7631 78.7523 68.698 78.3745 83.323 76.0365C97.9784 73.6936 108.754 70.5051 110.414 71.4135C112.074 72.3216 112.711 75.796 111.873 77.0874C111.035 78.379 99.117 80.2618 84.4614 82.605C69.8349 84.9432 55.2811 87.0494 53.251 86.4592C51.2212 85.8688 50.5669 81.9721 52.1651 80.3621Z" fill="#FEBE00" stroke="#2C2C2C" stroke-width="2.67964" stroke-linecap="round" stroke-linejoin="round"/>
<path fill-rule="evenodd" clip-rule="evenodd" d="M60.3095 166.302H60.3724C62.0921 166.302 63.4864 167.836 63.4864 169.727V184.811C63.4864 186.703 62.0921 188.235 60.3724 188.235H60.3095C58.5896 188.235 57.1955 186.703 57.1955 184.811V169.727C57.1955 167.836 58.5896 166.302 60.3095 166.302Z" fill="#FEBE00"/>
<path fill-rule="evenodd" clip-rule="evenodd" d="M71.3072 177.84V177.902C71.3072 179.622 69.7742 181.015 67.8833 181.015H52.7987C50.9075 181.015 49.3746 179.622 49.3746 177.902V177.84C49.3746 176.118 50.9075 174.725 52.7987 174.725H67.8833C69.7742 174.725 71.3072 176.118 71.3072 177.84Z" fill="#FEBE00"/>
<path fill-rule="evenodd" clip-rule="evenodd" d="M45.0208 143.55C44.8435 136.271 38.5157 130.592 40.4096 129.632C42.3032 128.672 49.3665 140.779 49.3806 144.053C49.3944 147.327 39.8225 151.515 38.3134 150.676C36.8043 149.838 45.0771 145.863 45.0208 143.55Z" fill="#D7D7D7"/>
<path fill-rule="evenodd" clip-rule="evenodd" d="M50.9379 135.959C49.4541 136.524 51.9812 140.132 52.0265 145.303C52.0718 150.474 48.9838 156.27 51.1192 156.643C51.9745 156.792 55.544 150.426 55.4987 145.255C55.4533 140.084 51.8432 135.614 50.9379 135.959Z" fill="#D7D7D7"/>
<path fill-rule="evenodd" clip-rule="evenodd" d="M58.0139 132.421C56.3717 132.83 56.6109 138.245 57.7417 143.943C58.6554 148.546 61.8121 155.733 63.4569 155.01C64.0107 154.767 60.9389 147.136 60.133 143.576C58.8502 137.911 58.7215 132.245 58.0139 132.421Z" fill="#D7D7D7"/>
<path d="M104.291 87.2891L145.827 98.9915L124.129 171.926" stroke="#2C2C2C" stroke-width="2.67964" stroke-linecap="round" stroke-linejoin="round"/>
<path fill-rule="evenodd" clip-rule="evenodd" d="M128.169 154.531C130.581 153.22 120.877 146.213 121.998 141.571C123.119 136.928 132.644 141.262 132.644 141.262L135.684 132.562C135.684 132.562 143.806 135.022 145.758 142.342C147.71 149.663 141.284 162.708 141.284 162.708L126.472 166.564C126.472 166.564 122.354 157.691 128.169 154.531Z" fill="#FEBE00" stroke="#2C2C2C" stroke-width="2.67964" stroke-linecap="round" stroke-linejoin="round"/>
<path fill-rule="evenodd" clip-rule="evenodd" d="M142.159 163.656C142.159 163.656 145.25 165.816 148.21 173.531Z" fill="#009688"/>
<path d="M142.159 163.656C142.159 163.656 145.25 165.816 148.21 173.531" stroke="#2C2C2C" stroke-width="2.67964" stroke-linecap="round" stroke-linejoin="round"/>
<path fill-rule="evenodd" clip-rule="evenodd" d="M137.115 63.2275H162.507C165.658 63.2275 168.212 65.8464 168.212 69.0774V83.3206C168.212 86.5516 165.658 89.1707 162.507 89.1707H137.115C133.964 89.1707 131.409 86.5516 131.409 83.3206V69.0774C131.409 65.8464 133.964 63.2275 137.115 63.2275Z" fill="white" stroke="#2C2C2C" stroke-width="3.57285" stroke-linecap="round" stroke-linejoin="round"/>
<path fill-rule="evenodd" clip-rule="evenodd" d="M136.44 76.89L143.051 76.6356L146.229 70.2793L148.39 82.9919L150.17 73.3303L152.585 78.9238L154.747 75.4914L163.217 75.5421" fill="#8B8B8B"/>
<path d="M136.44 76.89L143.051 76.6356L146.229 70.2793L148.39 82.9919L150.17 73.3303L152.585 78.9238L154.747 75.4914L163.217 75.5421" stroke="#009688" stroke-width="2.67964" stroke-linecap="round" stroke-linejoin="round"/>
<path fill-rule="evenodd" clip-rule="evenodd" d="M134.723 88.54H164.414V93.5244H134.723V88.54Z" fill="#2C2C2C" stroke="#2C2C2C" stroke-width="2.67964" stroke-linecap="round" stroke-linejoin="round"/>
<path fill-rule="evenodd" clip-rule="evenodd" d="M146.957 92.4463H152.708V99.7552H146.957V92.4463Z" fill="#2C2C2C" stroke="#2C2C2C" stroke-width="2.67964" stroke-linecap="round" stroke-linejoin="round"/>
<path fill-rule="evenodd" clip-rule="evenodd" d="M145.252 138.285H235.405V144.091H145.252V138.285Z" fill="#2C2C2C"/>
<path fill-rule="evenodd" clip-rule="evenodd" d="M200.807 99.3162C198.951 103.29 185.795 106.77 182.616 104.75C179.438 102.73 183.218 94.1784 188.339 92.3509C193.963 90.3439 202.66 95.3425 200.807 99.3162Z" stroke="#2C2C2C" stroke-width="2.67964" stroke-linecap="round" stroke-linejoin="round"/>
<path d="M186.972 92.163C163.028 85.6666 142.796 121.118 170.081 141.999" stroke="#2C2C2C" stroke-width="3.31425" stroke-linecap="round" stroke-linejoin="round"/>
<path fill-rule="evenodd" clip-rule="evenodd" d="M189.532 90.9363C190.282 92.2424 186.263 94.2354 186.263 94.2354C186.263 94.2354 182.923 94.8803 182.108 93.6148C181.292 92.3496 181.145 89.8434 183.001 89.174C184.857 88.5043 188.782 89.6304 189.532 90.9363Z" fill="#2C2C2C"/>
<path fill-rule="evenodd" clip-rule="evenodd" d="M202.522 97.5004C199.996 100.446 206.175 106.713 201.046 112.502C198.317 115.58 202.555 117.813 198.169 120.452C195.628 121.981 194.311 118.475 192.167 119.37C189.061 120.668 189.546 122.4 190.913 123.423C195.079 126.544 200.599 125.479 210.252 123.825C217.742 122.541 221.275 112.748 215.656 100.634C214.247 97.5933 205.811 93.6634 202.522 97.5004Z" fill="#2C2C2C"/>
<path d="M197.618 101.946C197.618 101.946 196.066 105.037 197.91 107.729" stroke="#2C2C2C" stroke-width="2.00973" stroke-linecap="round" stroke-linejoin="round"/>
<path d="M168.95 100.923C168.95 100.923 159.549 100.408 153.624 100.781C147.699 101.153 145.252 102.413 145.252 102.413" stroke="#2C2C2C" stroke-width="2.20864" stroke-linecap="round" stroke-linejoin="round"/>
<path d="M192.65 120.356C192.65 120.356 185.007 120.441 181.696 121.715" stroke="#2C2C2C" stroke-width="2.67964" stroke-linecap="round" stroke-linejoin="round"/>
<path d="M180.043 109.75C180.043 109.75 181.443 116.747 186.641 117.326" stroke="#2C2C2C" stroke-width="2.67964" stroke-linecap="round" stroke-linejoin="round"/>
<path d="M216.389 116.954C216.389 116.954 227.777 117.73 230.146 120.962C232.529 124.212 234.918 131.829 230.146 134.177C223.322 137.535 184.218 136.885 184.218 136.885L181.185 122.37" stroke="#2C2C2C" stroke-width="2.67964" stroke-linecap="round" stroke-linejoin="round"/>
<path fill-rule="evenodd" clip-rule="evenodd" d="M222.514 127.29C222.514 127.29 194.393 127.005 188.507 129.852C182.62 132.699 217.541 129.719 222.514 127.29Z" fill="#CBCBCB"/>
<path fill-rule="evenodd" clip-rule="evenodd" d="M184.125 140.258C185.254 139.383 181.728 128.539 180.619 118.613C179.517 108.764 180.84 99.8313 180.136 99.0429C178.722 97.4594 171.37 98.0206 169.9 99.6083C169.108 100.464 168.452 109.698 169.209 119.623C169.943 129.244 172.949 140.197 174.583 140.47C177.91 141.026 182.438 141.564 184.125 140.258Z" stroke="#2C2C2C" stroke-width="2.67964" stroke-linecap="round" stroke-linejoin="round"/>
<path fill-rule="evenodd" clip-rule="evenodd" d="M233.096 79.3896H236.059C237.131 79.3896 238 80.2576 238 81.3284V171.174C238 172.246 237.131 173.113 236.059 173.113H233.096C232.027 173.113 231.158 172.246 231.158 171.174V81.3284C231.158 80.2576 232.027 79.3896 233.096 79.3896Z" fill="#2C2C2C"/>
<path fill-rule="evenodd" clip-rule="evenodd" d="M207.597 44.2842H208.741V98.5504H207.597V44.2842Z" fill="#2C2C2C" stroke="#2C2C2C" stroke-width="2.67964" stroke-linecap="round" stroke-linejoin="round"/>
<path fill-rule="evenodd" clip-rule="evenodd" d="M208.484 47.2207V48.3645H187.352V47.2207H208.484Z" fill="#2C2C2C" stroke="#2C2C2C" stroke-width="2.67964" stroke-linecap="round" stroke-linejoin="round"/>
<path fill-rule="evenodd" clip-rule="evenodd" d="M193.295 50.3838C197.247 50.3838 200.454 54.1402 200.454 58.774V71.6215C200.454 76.2552 197.247 80.0117 193.295 80.0117C189.34 80.0117 186.135 76.2552 186.135 71.6215V58.774C186.135 54.1402 189.34 50.3838 193.295 50.3838Z" fill="white" stroke="#2C2C2C" stroke-width="2.67964" stroke-linecap="round" stroke-linejoin="round"/>
<path fill-rule="evenodd" clip-rule="evenodd" d="M194.03 80.9844V91.9387Z" fill="white"/>
<path d="M194.03 80.9844V91.9387" stroke="#2C2C2C" stroke-width="2.67964" stroke-linecap="round" stroke-linejoin="round"/>
</svg>
