<svg width="240" height="240" viewBox="0 0 240 240" fill="none" xmlns="http://www.w3.org/2000/svg">
<rect width="240" height="240" fill="white"/>
<path fill-rule="evenodd" clip-rule="evenodd" d="M136.036 57.4174C135.424 56.5083 142.832 52.9142 143.044 52.4338C143.534 51.3205 139.461 46.391 139.919 44.186C140.306 42.3093 153.102 24.5744 157.16 23.5616C169.135 20.5716 186.886 30.3174 188.241 34.042C189.611 37.8035 186.413 58.0709 182.551 60.7755C181.454 61.5427 177.318 62.1739 172.341 62.6072C163.222 63.4011 151.28 63.53 150.047 62.6108C147.699 60.8596 143.832 56.7457 143.832 56.7457C143.832 56.7457 136.667 58.3552 136.036 57.4174Z" fill="#FFA726"/>
<path d="M152.951 44.8672C153.43 44.8672 153.842 44.7266 154.185 44.4453C154.534 44.1641 154.709 43.7604 154.709 43.2344C154.709 42.8333 154.571 42.4896 154.295 42.2031C154.019 41.9115 153.646 41.7656 153.178 41.7656C152.86 41.7656 152.597 41.8099 152.389 41.8984C152.185 41.987 152.024 42.1042 151.904 42.25C151.784 42.3958 151.67 42.5833 151.56 42.8125C151.456 43.0417 151.36 43.2578 151.271 43.4609C151.219 43.5703 151.126 43.6562 150.99 43.7188C150.855 43.7812 150.698 43.8125 150.521 43.8125C150.313 43.8125 150.12 43.7292 149.943 43.5625C149.771 43.3906 149.685 43.1641 149.685 42.8828C149.685 42.612 149.766 42.3281 149.928 42.0312C150.094 41.7292 150.334 41.4427 150.646 41.1719C150.964 40.901 151.357 40.6849 151.826 40.5234C152.295 40.3568 152.818 40.2734 153.396 40.2734C153.902 40.2734 154.363 40.3438 154.779 40.4844C155.196 40.6198 155.558 40.8177 155.865 41.0781C156.172 41.3385 156.404 41.6406 156.56 41.9844C156.717 42.3281 156.795 42.6979 156.795 43.0938C156.795 43.6146 156.68 44.0625 156.451 44.4375C156.227 44.8073 155.904 45.1693 155.482 45.5234C155.889 45.7422 156.23 45.9922 156.506 46.2734C156.787 46.5547 156.998 46.8672 157.139 47.2109C157.279 47.5495 157.349 47.9167 157.349 48.3125C157.349 48.7865 157.253 49.2448 157.06 49.6875C156.873 50.1302 156.594 50.526 156.224 50.875C155.855 51.2188 155.415 51.4896 154.904 51.6875C154.399 51.8802 153.839 51.9766 153.224 51.9766C152.599 51.9766 152.04 51.8646 151.545 51.6406C151.05 51.4167 150.641 51.138 150.318 50.8047C150.001 50.4661 149.758 50.1172 149.592 49.7578C149.43 49.3984 149.349 49.1016 149.349 48.8672C149.349 48.5651 149.446 48.3229 149.639 48.1406C149.836 47.9531 150.081 47.8594 150.373 47.8594C150.519 47.8594 150.659 47.9036 150.795 47.9922C150.93 48.0755 151.019 48.1771 151.06 48.2969C151.331 49.0208 151.62 49.5599 151.928 49.9141C152.24 50.263 152.678 50.4375 153.24 50.4375C153.563 50.4375 153.873 50.3594 154.17 50.2031C154.472 50.0417 154.719 49.8047 154.912 49.4922C155.11 49.1797 155.209 48.8177 155.209 48.4062C155.209 47.7969 155.042 47.3203 154.709 46.9766C154.376 46.6276 153.912 46.4531 153.318 46.4531C153.214 46.4531 153.053 46.4635 152.834 46.4844C152.615 46.5052 152.474 46.5156 152.412 46.5156C152.126 46.5156 151.904 46.4453 151.748 46.3047C151.592 46.1589 151.514 45.9583 151.514 45.7031C151.514 45.4531 151.607 45.2526 151.795 45.1016C151.982 44.9453 152.261 44.8672 152.631 44.8672H152.951Z" fill="#2C2C2C"/>
<path d="M160.576 40.4375H165.779C166.279 40.4375 166.641 40.5156 166.865 40.6719C167.089 40.8281 167.201 41.0859 167.201 41.4453C167.201 41.6641 167.068 41.9531 166.803 42.3125C166.542 42.6719 166.243 43.0703 165.904 43.5078C165.571 43.9401 165.224 44.4792 164.865 45.125C164.511 45.7708 164.185 46.5599 163.889 47.4922C163.764 47.9036 163.675 48.2448 163.623 48.5156C163.571 48.7865 163.514 49.138 163.451 49.5703C163.389 50.0026 163.334 50.3333 163.287 50.5625C163.178 51.0938 163.021 51.4635 162.818 51.6719C162.62 51.875 162.355 51.9766 162.021 51.9766C161.704 51.9766 161.448 51.8672 161.256 51.6484C161.063 51.4245 160.967 51.0964 160.967 50.6641C160.967 50.3307 161.037 49.8776 161.178 49.3047C161.318 48.7318 161.547 48.0469 161.865 47.25C162.183 46.4479 162.579 45.6276 163.053 44.7891C163.532 43.9453 164.099 43.1068 164.756 42.2734H160.576C160.139 42.2734 159.81 42.1953 159.592 42.0391C159.378 41.8776 159.271 41.6276 159.271 41.2891C159.271 40.9297 159.386 40.6979 159.615 40.5938C159.844 40.4896 160.165 40.4375 160.576 40.4375Z" fill="#2C2C2C"/>
<path d="M170.115 51.9766C169.792 51.9766 169.514 51.8724 169.279 51.6641C169.045 51.4557 168.928 51.1641 168.928 50.7891C168.928 50.4714 169.04 50.1979 169.264 49.9688C169.488 49.7396 169.764 49.625 170.092 49.625C170.42 49.625 170.698 49.7396 170.928 49.9688C171.162 50.1927 171.279 50.4661 171.279 50.7891C171.279 51.1589 171.162 51.4505 170.928 51.6641C170.698 51.8724 170.428 51.9766 170.115 51.9766Z" fill="#2C2C2C"/>
<path d="M180.021 42.2578H176.31L175.865 44.7891C176.605 44.3932 177.287 44.1953 177.912 44.1953C178.412 44.1953 178.878 44.2891 179.31 44.4766C179.748 44.6641 180.131 44.9245 180.459 45.2578C180.787 45.5859 181.045 45.9766 181.232 46.4297C181.42 46.8828 181.514 47.3698 181.514 47.8906C181.514 48.6458 181.344 49.3333 181.006 49.9531C180.667 50.5729 180.178 51.0651 179.537 51.4297C178.902 51.7943 178.167 51.9766 177.334 51.9766C176.402 51.9766 175.644 51.8047 175.06 51.4609C174.482 51.1172 174.071 50.724 173.826 50.2812C173.586 49.8333 173.467 49.4427 173.467 49.1094C173.467 48.9062 173.55 48.7135 173.717 48.5312C173.889 48.349 174.102 48.2578 174.357 48.2578C174.795 48.2578 175.12 48.5104 175.334 49.0156C175.542 49.4792 175.823 49.8411 176.178 50.1016C176.532 50.3568 176.928 50.4844 177.365 50.4844C177.766 50.4844 178.118 50.3802 178.42 50.1719C178.722 49.9635 178.954 49.6771 179.115 49.3125C179.282 48.9479 179.365 48.5339 179.365 48.0703C179.365 47.5703 179.277 47.1432 179.099 46.7891C178.922 46.4349 178.685 46.1719 178.389 46C178.092 45.8229 177.761 45.7344 177.396 45.7344C176.948 45.7344 176.628 45.7891 176.435 45.8984C176.243 46.0078 175.964 46.2005 175.599 46.4766C175.24 46.7474 174.943 46.8828 174.709 46.8828C174.454 46.8828 174.227 46.7917 174.029 46.6094C173.831 46.4219 173.732 46.2109 173.732 45.9766C173.732 45.9505 173.761 45.7734 173.818 45.4453L174.474 41.7031C174.547 41.2552 174.683 40.9297 174.881 40.7266C175.079 40.5234 175.402 40.4219 175.849 40.4219H179.974C180.787 40.4219 181.193 40.7318 181.193 41.3516C181.193 41.6224 181.094 41.8411 180.896 42.0078C180.698 42.1745 180.407 42.2578 180.021 42.2578Z" fill="#2C2C2C"/>
<path d="M64.5946 126.052C64.5946 126.052 65.6472 129.058 64.4399 136.945" stroke="#2C2C2C" stroke-width="2.29617" stroke-linecap="round" stroke-linejoin="round"/>
<path d="M87.3253 125.441C87.3253 125.441 86.2725 128.448 87.4797 136.335" stroke="#2C2C2C" stroke-width="2.29617" stroke-linecap="round" stroke-linejoin="round"/>
<path fill-rule="evenodd" clip-rule="evenodd" d="M46.398 105.418C38.6697 105.984 18.3385 80.0429 30.8648 49.887C38.9445 30.4361 66.3563 19.267 84.9137 24.1383C102.738 28.8173 107.183 40.8401 107.183 40.8401C107.183 40.8401 123.132 44.1385 126.668 66.1247C129.498 83.7217 120.869 102.641 105.865 110.801" fill="#2C2C2C"/>
<path d="M46.398 105.418C38.6697 105.984 18.3385 80.0429 30.8648 49.887C38.9445 30.4361 66.3563 19.267 84.9137 24.1383C102.738 28.8173 107.183 40.8401 107.183 40.8401C107.183 40.8401 123.132 44.1385 126.668 66.1247C129.498 83.7217 120.869 102.641 105.865 110.801" stroke="#2C2C2C" stroke-width="2.29617" stroke-linecap="round" stroke-linejoin="round"/>
<path fill-rule="evenodd" clip-rule="evenodd" d="M43.8935 73.4549C43.8935 73.4549 36.5094 128.235 74.8896 127.205C105.274 126.389 108.033 102.905 108.033 102.905C108.033 102.905 117.992 104.794 118.078 96.38C118.158 88.5552 108.376 89.7685 108.376 89.7685V79.7228C108.376 79.7228 104.395 77.4058 98.4837 70.312C93.369 64.1745 91.5925 58.3545 91.5925 58.3545C91.5925 58.3545 81.9902 65.9538 69.7619 68.5851C47.5465 73.3651 43.8935 73.4549 43.8935 73.4549Z" fill="white" stroke="#2C2C2C" stroke-width="2.29617" stroke-linecap="round" stroke-linejoin="round"/>
<path fill-rule="evenodd" clip-rule="evenodd" d="M73.9327 110.338L114.063 80.9201C115.385 79.951 117.261 80.2127 118.252 81.5049C119.244 82.7971 118.976 84.6302 117.654 85.5993L80.9505 112.505" fill="white"/>
<path d="M73.9327 110.338L114.063 80.9201C115.385 79.951 117.261 80.2127 118.252 81.5049C119.244 82.7971 118.976 84.6302 117.654 85.5993L80.9505 112.505" stroke="#2C2C2C" stroke-width="2.29617" stroke-linecap="round" stroke-linejoin="round"/>
<path fill-rule="evenodd" clip-rule="evenodd" d="M56.9666 88.8054C56.9666 86.6019 58.0678 84.8154 59.4261 84.8154C60.7847 84.8154 61.8859 86.6019 61.8859 88.8054C61.8859 91.0092 60.7847 92.7956 59.4261 92.7956C58.0678 92.7956 56.9666 91.0092 56.9666 88.8054Z" fill="#2C2C2C" stroke="#2C2C2C" stroke-width="2.29617" stroke-linecap="round" stroke-linejoin="round"/>
<path fill-rule="evenodd" clip-rule="evenodd" d="M62.6792 74.6465C62.6792 74.6465 58.3255 73.0246 55.0814 76.0125Z" fill="#2C2C2C"/>
<path d="M62.6792 74.6465C62.6792 74.6465 58.3255 73.0246 55.0814 76.0125" stroke="#2C2C2C" stroke-width="2.29617" stroke-linecap="round" stroke-linejoin="round"/>
<path fill-rule="evenodd" clip-rule="evenodd" d="M93.2339 88.6347C93.2339 86.4311 92.1327 84.6445 90.7743 84.6445C89.416 84.6445 88.3148 86.4311 88.3148 88.6347C88.3148 90.8384 89.416 92.6249 90.7743 92.6249C92.1327 92.6249 93.2339 90.8384 93.2339 88.6347Z" fill="#2C2C2C" stroke="#2C2C2C" stroke-width="2.29617" stroke-linecap="round" stroke-linejoin="round"/>
<path fill-rule="evenodd" clip-rule="evenodd" d="M87.5212 74.4757C87.5212 74.4757 91.8752 72.8536 95.1191 75.8415Z" fill="#2C2C2C"/>
<path d="M87.5212 74.4757C87.5212 74.4757 91.8752 72.8536 95.1191 75.8415" stroke="#2C2C2C" stroke-width="2.29617" stroke-linecap="round" stroke-linejoin="round"/>
<path d="M73.0726 89.8809C73.0726 89.8809 73.5448 92.3841 72.838 93.1722C72.1312 93.9604 69.3228 94.7237 69.3591 97.3078C69.397 100.008 73.2649 100.599 73.2649 100.599" stroke="#2C2C2C" stroke-width="2.29617" stroke-linecap="round" stroke-linejoin="round"/>
<path d="M68.9473 111.114C68.9473 111.114 77.1003 108.085 82.6132 114.142" stroke="#2C2C2C" stroke-width="2.29617" stroke-linecap="round" stroke-linejoin="round"/>
<path fill-rule="evenodd" clip-rule="evenodd" d="M92.6112 132.536C90.5129 132.809 79.104 139.019 79.104 139.019C79.104 139.019 72.7019 138.873 66.627 137.016C61.7006 135.51 57.0928 132.187 55.4665 132.4C48.0128 133.378 3.51228 154.047 4.00404 161.981C4.46577 169.434 24.2461 193.478 76.1324 193.993C130.431 194.534 148.046 167.781 147.315 163.467C145.568 153.151 96.4851 132.031 92.6112 132.536Z" fill="#009688" stroke="#009688" stroke-width="2.29617" stroke-linecap="round" stroke-linejoin="round"/>
<path fill-rule="evenodd" clip-rule="evenodd" d="M77.0907 142.169C78.1144 142.027 79.0572 149.398 79.1267 150.035C79.2507 151.172 79.0907 154.826 76.3781 154.486C75.1776 154.336 75.9874 142.322 77.0907 142.169Z" fill="#007267"/>
<path fill-rule="evenodd" clip-rule="evenodd" d="M75.1302 160.596C75.5169 161.149 75.1795 165.884 75.3343 170.616C75.6194 179.333 77.4946 190.335 76.1814 190.207C75.4206 190.133 72.7123 179.463 72.7695 175.228C72.8342 170.443 74.6294 159.88 75.1302 160.596Z" fill="#007267"/>
<path fill-rule="evenodd" clip-rule="evenodd" d="M76.0117 140.022C76.0117 140.022 65.3477 141.676 61.9737 145.98C59.5283 149.1 61.0583 152.727 66.0415 151.567C71.0248 150.407 76.0117 140.022 76.0117 140.022Z" stroke="#007267" stroke-width="2.29617" stroke-linecap="round" stroke-linejoin="round"/>
<path fill-rule="evenodd" clip-rule="evenodd" d="M74.3802 159.838C74.3802 159.838 65.005 165.182 63.3856 170.406C62.2121 174.192 64.9336 177.036 69.1769 174.177C73.4201 171.318 74.3802 159.838 74.3802 159.838Z" stroke="#007267" stroke-width="2.29617" stroke-linecap="round" stroke-linejoin="round"/>
<path fill-rule="evenodd" clip-rule="evenodd" d="M74.3607 159.97C74.3607 159.97 84.2142 164.37 86.3372 169.41C87.8758 173.063 85.4459 176.16 80.9431 173.73C76.4403 171.301 74.3607 159.97 74.3607 159.97Z" stroke="#007267" stroke-width="2.29617" stroke-linecap="round" stroke-linejoin="round"/>
<path fill-rule="evenodd" clip-rule="evenodd" d="M76.2673 140.056C76.2673 140.056 87.0427 140.645 90.8266 144.593C93.5689 147.455 92.4059 151.216 87.3324 150.556C82.2586 149.896 76.2673 140.056 76.2673 140.056Z" stroke="#007267" stroke-width="2.29617" stroke-linecap="round" stroke-linejoin="round"/>
<rect x="87.7213" y="99.4229" width="3.60946" height="2" rx="1" transform="rotate(51.3879 87.7213 99.4229)" fill="#2C2C2C"/>
<rect x="82.5628" y="103" width="3.60946" height="2" rx="1" transform="rotate(51.3879 82.5628 103)" fill="#2C2C2C"/>
<rect x="92.5628" y="96" width="3.60946" height="2" rx="1" transform="rotate(51.3879 92.5628 96)" fill="#2C2C2C"/>
<rect x="96.5628" y="93" width="3.60946" height="2" rx="1" transform="rotate(51.3879 96.5628 93)" fill="#2C2C2C"/>
<rect x="100.563" y="90" width="3.60946" height="2" rx="1" transform="rotate(51.3879 100.563 90)" fill="#2C2C2C"/>
<rect x="104.563" y="87" width="3.60946" height="2" rx="1" transform="rotate(51.3879 104.563 87)" fill="#2C2C2C"/>
<path fill-rule="evenodd" clip-rule="evenodd" d="M162 85.9795H169.198H236.607V207.799H185.736H162V85.9795Z" fill="white" stroke="#2C2C2C" stroke-width="2.28838" stroke-linecap="round" stroke-linejoin="round"/>
<path fill-rule="evenodd" clip-rule="evenodd" d="M236.607 92.8138H162V83.2341C162 80.8957 163.896 79 166.234 79H232.372C234.711 79 236.607 80.8957 236.607 83.2341V92.8138Z" fill="#009688" stroke="#2C2C2C" stroke-width="2.28838" stroke-linecap="round" stroke-linejoin="round"/>
<path fill-rule="evenodd" clip-rule="evenodd" d="M236.746 168.806H162.14V210.206C162.14 214.234 165.405 217.499 169.433 217.499H229.454C233.481 217.499 236.746 214.234 236.746 210.206V168.806Z" fill="#DBDBDB" stroke="#2C2C2C" stroke-width="2.28838" stroke-linecap="round" stroke-linejoin="round"/>
<path d="M171.359 112.391C171.359 112.158 171.419 111.945 171.539 111.751C171.666 111.558 171.836 111.411 172.049 111.311C171.816 111.251 171.479 111.191 171.039 111.131C171.039 110.671 171.149 110.265 171.369 109.911C171.596 109.551 171.909 109.275 172.309 109.081C172.716 108.881 173.182 108.781 173.709 108.781C174.196 108.781 174.626 108.868 174.999 109.041C175.372 109.215 175.662 109.461 175.869 109.781C176.076 110.095 176.179 110.455 176.179 110.861V114.641H174.759V111.011C174.759 110.678 174.652 110.408 174.439 110.201C174.226 109.988 173.949 109.881 173.609 109.881C173.316 109.881 173.046 109.945 172.799 110.071C172.559 110.191 172.399 110.348 172.319 110.541C172.799 110.655 173.186 110.788 173.479 110.941V111.361C173.012 111.535 172.779 111.855 172.779 112.321V114.641H171.359V112.391Z" fill="black"/>
<path d="M179.004 109.881C178.864 109.881 178.741 109.918 178.634 109.991C178.528 110.058 178.474 110.148 178.474 110.261C179.314 110.328 179.964 110.478 180.424 110.711C180.891 110.945 181.124 111.235 181.124 111.581V113.541C181.124 113.895 181.004 114.185 180.764 114.411C180.524 114.631 180.214 114.741 179.834 114.741C179.474 114.741 179.181 114.638 178.954 114.431C178.728 114.225 178.614 113.961 178.614 113.641C178.614 113.321 178.714 113.061 178.914 112.861C179.121 112.661 179.384 112.558 179.704 112.551V111.821C179.704 111.695 179.558 111.578 179.264 111.471C178.978 111.358 178.621 111.271 178.194 111.211C177.768 111.145 177.364 111.111 176.984 111.111C176.984 110.385 177.141 109.815 177.454 109.401C177.774 108.988 178.201 108.781 178.734 108.781C178.921 108.781 179.071 108.795 179.184 108.821C179.304 108.848 179.444 108.888 179.604 108.941C179.691 108.975 179.778 109.005 179.864 109.031C179.958 109.051 180.051 109.061 180.144 109.061C180.258 109.061 180.358 109.031 180.444 108.971C180.531 108.905 180.588 108.825 180.614 108.731L181.584 109.031C181.498 109.398 181.348 109.685 181.134 109.891C180.921 110.098 180.678 110.201 180.404 110.201C180.291 110.201 180.184 110.188 180.084 110.161C179.984 110.135 179.864 110.095 179.724 110.041C179.578 109.988 179.451 109.948 179.344 109.921C179.244 109.895 179.131 109.881 179.004 109.881ZM180.164 113.641C180.164 113.508 180.124 113.401 180.044 113.321C179.964 113.241 179.858 113.201 179.724 113.201C179.598 113.201 179.491 113.241 179.404 113.321C179.324 113.401 179.284 113.508 179.284 113.641C179.284 113.768 179.324 113.875 179.404 113.961C179.491 114.041 179.598 114.081 179.724 114.081C179.858 114.081 179.964 114.041 180.044 113.961C180.124 113.875 180.164 113.768 180.164 113.641Z" fill="black"/>
<path d="M184.744 108.781C185.244 108.781 185.684 108.858 186.064 109.011C186.444 109.165 186.737 109.378 186.944 109.651C187.15 109.918 187.254 110.228 187.254 110.581V113.221C187.254 113.695 187.04 114.068 186.614 114.341C186.194 114.608 185.627 114.741 184.914 114.741C184.194 114.741 183.627 114.605 183.214 114.331C182.8 114.058 182.594 113.688 182.594 113.221V112.011C182.594 111.658 182.71 111.375 182.944 111.161C183.177 110.941 183.484 110.831 183.864 110.831C184.224 110.831 184.514 110.931 184.734 111.131C184.954 111.331 185.064 111.591 185.064 111.911C185.064 112.225 184.964 112.478 184.764 112.671C184.564 112.858 184.307 112.955 183.994 112.961V113.151C183.994 113.305 184.08 113.425 184.254 113.511C184.434 113.598 184.66 113.641 184.934 113.641C185.234 113.641 185.457 113.588 185.604 113.481C185.757 113.375 185.834 113.231 185.834 113.051V110.651C185.834 110.425 185.73 110.241 185.524 110.101C185.324 109.955 185.057 109.881 184.724 109.881C184.397 109.881 184.117 109.951 183.884 110.091C183.657 110.225 183.52 110.401 183.474 110.621H182.094C182.114 110.255 182.24 109.931 182.474 109.651C182.707 109.371 183.017 109.158 183.404 109.011C183.797 108.858 184.244 108.781 184.744 108.781ZM183.544 111.901C183.544 112.028 183.584 112.131 183.664 112.211C183.744 112.291 183.847 112.331 183.974 112.331C184.1 112.331 184.204 112.291 184.284 112.211C184.364 112.131 184.404 112.028 184.404 111.901C184.404 111.775 184.364 111.671 184.284 111.591C184.204 111.511 184.1 111.471 183.974 111.471C183.847 111.471 183.744 111.511 183.664 111.591C183.584 111.671 183.544 111.775 183.544 111.901Z" fill="black"/>
<path d="M188.478 112.391C188.478 112.158 188.538 111.945 188.658 111.751C188.785 111.558 188.955 111.411 189.168 111.311C188.935 111.251 188.598 111.191 188.158 111.131C188.158 110.671 188.268 110.265 188.488 109.911C188.715 109.551 189.028 109.275 189.428 109.081C189.835 108.881 190.302 108.781 190.828 108.781C191.315 108.781 191.745 108.868 192.118 109.041C192.492 109.215 192.782 109.461 192.988 109.781C193.195 110.095 193.298 110.455 193.298 110.861V114.641H191.878V111.011C191.878 110.678 191.772 110.408 191.558 110.201C191.345 109.988 191.068 109.881 190.728 109.881C190.435 109.881 190.165 109.945 189.918 110.071C189.678 110.191 189.518 110.348 189.438 110.541C189.918 110.655 190.305 110.788 190.598 110.941V111.361C190.132 111.535 189.898 111.855 189.898 112.321V114.641H188.478V112.391Z" fill="black"/>
<path d="M196.843 108.781C197.343 108.781 197.783 108.858 198.163 109.011C198.543 109.165 198.837 109.378 199.043 109.651C199.25 109.918 199.353 110.228 199.353 110.581V113.221C199.353 113.695 199.14 114.068 198.713 114.341C198.293 114.608 197.727 114.741 197.013 114.741C196.293 114.741 195.727 114.605 195.313 114.331C194.9 114.058 194.693 113.688 194.693 113.221V112.011C194.693 111.658 194.81 111.375 195.043 111.161C195.277 110.941 195.583 110.831 195.963 110.831C196.323 110.831 196.613 110.931 196.833 111.131C197.053 111.331 197.163 111.591 197.163 111.911C197.163 112.225 197.063 112.478 196.863 112.671C196.663 112.858 196.407 112.955 196.093 112.961V113.151C196.093 113.305 196.18 113.425 196.353 113.511C196.533 113.598 196.76 113.641 197.033 113.641C197.333 113.641 197.557 113.588 197.703 113.481C197.857 113.375 197.933 113.231 197.933 113.051V110.651C197.933 110.425 197.83 110.241 197.623 110.101C197.423 109.955 197.157 109.881 196.823 109.881C196.497 109.881 196.217 109.951 195.983 110.091C195.757 110.225 195.62 110.401 195.573 110.621H194.193C194.213 110.255 194.34 109.931 194.573 109.651C194.807 109.371 195.117 109.158 195.503 109.011C195.897 108.858 196.343 108.781 196.843 108.781ZM195.643 111.901C195.643 112.028 195.683 112.131 195.763 112.211C195.843 112.291 195.947 112.331 196.073 112.331C196.2 112.331 196.303 112.291 196.383 112.211C196.463 112.131 196.503 112.028 196.503 111.901C196.503 111.775 196.463 111.671 196.383 111.591C196.303 111.511 196.2 111.471 196.073 111.471C195.947 111.471 195.843 111.511 195.763 111.591C195.683 111.671 195.643 111.775 195.643 111.901Z" fill="black"/>
<path d="M198.15 117.211C198.097 117.231 198 117.241 197.86 117.241C197.574 117.241 197.344 117.148 197.17 116.961C196.99 116.775 196.9 116.535 196.9 116.241C196.9 115.941 197.004 115.698 197.21 115.511C197.417 115.331 197.694 115.241 198.04 115.241C198.407 115.241 198.7 115.331 198.92 115.511C199.14 115.691 199.25 115.928 199.25 116.221V118.241H198.15V117.211ZM197.89 116.651C198.01 116.651 198.11 116.611 198.19 116.531C198.264 116.458 198.3 116.361 198.3 116.241C198.3 116.121 198.264 116.021 198.19 115.941C198.11 115.868 198.01 115.831 197.89 115.831C197.77 115.831 197.674 115.868 197.6 115.941C197.52 116.021 197.48 116.121 197.48 116.241C197.48 116.361 197.52 116.458 197.6 116.531C197.674 116.611 197.77 116.651 197.89 116.651Z" fill="black"/>
<path d="M207.858 112.571C208.078 112.671 208.244 112.805 208.358 112.971C208.478 113.138 208.538 113.328 208.538 113.541C208.538 113.908 208.431 114.201 208.218 114.421C208.004 114.635 207.711 114.741 207.338 114.741C206.984 114.741 206.698 114.641 206.478 114.441C206.264 114.241 206.151 113.968 206.138 113.621C205.984 113.708 205.824 113.841 205.658 114.021C205.491 114.201 205.338 114.408 205.198 114.641H203.878V111.011C203.878 110.671 203.781 110.398 203.588 110.191C203.394 109.985 203.124 109.881 202.778 109.881C202.484 109.881 202.224 109.945 201.998 110.071C201.771 110.191 201.618 110.348 201.538 110.541C202.018 110.655 202.404 110.788 202.698 110.941V111.361C202.231 111.535 201.998 111.855 201.998 112.321V112.551C202.318 112.558 202.578 112.665 202.778 112.871C202.984 113.071 203.088 113.328 203.088 113.641C203.088 113.968 202.974 114.235 202.748 114.441C202.521 114.641 202.228 114.741 201.868 114.741C201.488 114.741 201.178 114.631 200.938 114.411C200.698 114.185 200.578 113.895 200.578 113.541V112.391C200.578 112.158 200.638 111.945 200.758 111.751C200.884 111.558 201.054 111.411 201.268 111.311C201.034 111.251 200.698 111.191 200.258 111.131C200.258 110.671 200.364 110.265 200.578 109.911C200.798 109.551 201.104 109.275 201.498 109.081C201.891 108.881 202.351 108.781 202.878 108.781C203.364 108.781 203.788 108.868 204.148 109.041C204.514 109.215 204.798 109.458 204.998 109.771C205.198 110.085 205.298 110.448 205.298 110.861V113.211C205.378 113.078 205.491 112.951 205.638 112.831C205.784 112.711 205.931 112.615 206.078 112.541C206.338 112.415 206.531 112.298 206.658 112.191C206.791 112.085 206.858 111.945 206.858 111.771V108.871H208.278V111.731C208.278 111.918 208.241 112.088 208.168 112.241C208.094 112.388 207.991 112.498 207.858 112.571ZM201.978 113.201C201.851 113.201 201.744 113.241 201.658 113.321C201.578 113.401 201.538 113.508 201.538 113.641C201.538 113.768 201.578 113.875 201.658 113.961C201.744 114.041 201.851 114.081 201.978 114.081C202.111 114.081 202.218 114.041 202.298 113.961C202.378 113.875 202.418 113.768 202.418 113.641C202.418 113.508 202.378 113.401 202.298 113.321C202.218 113.241 202.111 113.201 201.978 113.201ZM207.338 114.081C207.471 114.081 207.578 114.041 207.658 113.961C207.738 113.875 207.778 113.768 207.778 113.641C207.778 113.508 207.738 113.401 207.658 113.321C207.578 113.241 207.471 113.201 207.338 113.201C207.211 113.201 207.104 113.241 207.018 113.321C206.938 113.401 206.898 113.508 206.898 113.641C206.898 113.768 206.938 113.875 207.018 113.961C207.104 114.041 207.211 114.081 207.338 114.081Z" fill="black"/>
<path d="M214.531 110.681C214.638 110.781 214.718 110.905 214.771 111.051C214.831 111.191 214.861 111.341 214.861 111.501V114.641H213.441V111.711C213.441 111.538 213.388 111.451 213.281 111.451C213.241 111.451 213.205 111.468 213.171 111.501C213.138 111.528 213.098 111.581 213.051 111.661L211.431 114.641H210.171V110.971C209.851 110.965 209.588 110.861 209.381 110.661C209.181 110.461 209.081 110.201 209.081 109.881C209.081 109.561 209.195 109.298 209.421 109.091C209.648 108.885 209.941 108.781 210.301 108.781C210.681 108.781 210.991 108.895 211.231 109.121C211.471 109.341 211.591 109.628 211.591 109.981V111.801C211.591 112.168 211.561 112.518 211.501 112.851L212.421 111.141C212.561 110.875 212.735 110.691 212.941 110.591C212.768 110.385 212.681 110.141 212.681 109.861C212.681 109.548 212.785 109.291 212.991 109.091C213.205 108.885 213.468 108.781 213.781 108.781C214.101 108.781 214.368 108.885 214.581 109.091C214.795 109.291 214.901 109.548 214.901 109.861C214.901 110.028 214.868 110.185 214.801 110.331C214.741 110.471 214.651 110.588 214.531 110.681ZM210.191 110.321C210.325 110.321 210.431 110.281 210.511 110.201C210.591 110.115 210.631 110.008 210.631 109.881C210.631 109.748 210.591 109.641 210.511 109.561C210.431 109.481 210.325 109.441 210.191 109.441C210.065 109.441 209.958 109.481 209.871 109.561C209.791 109.641 209.751 109.748 209.751 109.881C209.751 110.008 209.791 110.115 209.871 110.201C209.958 110.281 210.065 110.321 210.191 110.321ZM213.791 109.441C213.665 109.441 213.558 109.481 213.471 109.561C213.391 109.641 213.351 109.748 213.351 109.881C213.351 110.008 213.391 110.115 213.471 110.201C213.558 110.281 213.665 110.321 213.791 110.321C213.925 110.321 214.031 110.281 214.111 110.201C214.191 110.115 214.231 110.008 214.231 109.881C214.231 109.748 214.191 109.641 214.111 109.561C214.031 109.481 213.925 109.441 213.791 109.441Z" fill="black"/>
<path d="M218.756 108.781C219.509 108.781 220.106 108.965 220.546 109.331C220.992 109.698 221.216 110.208 221.216 110.861V114.641H219.796V111.011C219.796 110.658 219.692 110.381 219.486 110.181C219.279 109.981 219.002 109.881 218.656 109.881C218.382 109.881 218.126 109.938 217.886 110.051C217.646 110.158 217.479 110.321 217.386 110.541C217.599 110.588 217.819 110.651 218.046 110.731C218.272 110.805 218.456 110.875 218.596 110.941V111.361C218.176 111.515 217.966 111.751 217.966 112.071C217.966 112.105 217.979 112.208 218.006 112.381C218.079 112.748 218.116 113.108 218.116 113.461C218.116 113.855 217.992 114.168 217.746 114.401C217.499 114.628 217.169 114.741 216.756 114.741C216.402 114.741 216.116 114.645 215.896 114.451C215.676 114.251 215.566 113.988 215.566 113.661C215.566 113.335 215.662 113.068 215.856 112.861C216.056 112.655 216.312 112.551 216.626 112.551C216.699 112.551 216.766 112.561 216.826 112.581C216.779 112.448 216.756 112.301 216.756 112.141C216.756 111.981 216.786 111.828 216.846 111.681C216.912 111.535 217.002 111.411 217.116 111.311C216.842 111.238 216.506 111.178 216.106 111.131C216.106 110.671 216.216 110.265 216.436 109.911C216.656 109.558 216.966 109.281 217.366 109.081C217.766 108.881 218.229 108.781 218.756 108.781ZM216.686 114.081C216.819 114.081 216.926 114.041 217.006 113.961C217.086 113.875 217.126 113.768 217.126 113.641C217.126 113.508 217.086 113.401 217.006 113.321C216.926 113.241 216.819 113.201 216.686 113.201C216.559 113.201 216.452 113.241 216.366 113.321C216.286 113.401 216.246 113.508 216.246 113.641C216.246 113.768 216.286 113.875 216.366 113.961C216.452 114.041 216.559 114.081 216.686 114.081Z" fill="black"/>
<path d="M219.643 118.201C219.23 118.201 218.893 118.121 218.633 117.961C218.367 117.808 218.233 117.605 218.233 117.351V117.021C218.18 117.041 218.09 117.051 217.963 117.051C217.71 117.051 217.503 116.965 217.343 116.791C217.183 116.625 217.103 116.408 217.103 116.141C217.103 115.875 217.2 115.658 217.393 115.491C217.58 115.325 217.83 115.241 218.143 115.241C218.47 115.241 218.723 115.321 218.903 115.481C219.083 115.641 219.173 115.855 219.173 116.121V117.011C219.173 117.125 219.217 117.218 219.303 117.291C219.39 117.365 219.503 117.401 219.643 117.401C219.783 117.401 219.897 117.365 219.983 117.291C220.07 117.218 220.113 117.125 220.113 117.011V115.291H221.213V117.351C221.213 117.605 221.07 117.808 220.783 117.961C220.49 118.121 220.11 118.201 219.643 118.201ZM217.993 116.511C218.1 116.511 218.19 116.478 218.263 116.411C218.33 116.345 218.363 116.255 218.363 116.141C218.363 116.035 218.33 115.945 218.263 115.871C218.19 115.805 218.1 115.771 217.993 115.771C217.88 115.771 217.79 115.805 217.723 115.871C217.657 115.945 217.623 116.035 217.623 116.141C217.623 116.255 217.657 116.345 217.723 116.411C217.79 116.478 217.88 116.511 217.993 116.511Z" fill="black"/>
<path d="M227.563 108.871V114.651H226.343C226.13 114.458 225.88 114.281 225.593 114.121C225.313 113.955 225.033 113.818 224.753 113.711C224.707 114.018 224.557 114.268 224.303 114.461C224.05 114.648 223.747 114.741 223.393 114.741C223.013 114.741 222.703 114.631 222.463 114.411C222.23 114.185 222.113 113.895 222.113 113.541C222.113 113.228 222.21 112.968 222.403 112.761C222.597 112.555 222.863 112.428 223.203 112.381V110.971C222.883 110.965 222.62 110.861 222.413 110.661C222.213 110.461 222.113 110.201 222.113 109.881C222.113 109.561 222.227 109.298 222.453 109.091C222.68 108.885 222.973 108.781 223.333 108.781C223.713 108.781 224.023 108.895 224.263 109.121C224.503 109.341 224.623 109.628 224.623 109.981V112.521C225.337 112.775 225.843 112.988 226.143 113.161V108.871H227.563ZM222.783 109.881C222.783 110.008 222.823 110.115 222.903 110.201C222.99 110.281 223.097 110.321 223.223 110.321C223.357 110.321 223.463 110.281 223.543 110.201C223.623 110.115 223.663 110.008 223.663 109.881C223.663 109.748 223.623 109.641 223.543 109.561C223.463 109.481 223.357 109.441 223.223 109.441C223.097 109.441 222.99 109.481 222.903 109.561C222.823 109.641 222.783 109.748 222.783 109.881ZM223.323 114.001C223.457 114.001 223.563 113.961 223.643 113.881C223.723 113.795 223.763 113.688 223.763 113.561C223.763 113.428 223.723 113.321 223.643 113.241C223.563 113.161 223.457 113.121 223.323 113.121C223.197 113.121 223.09 113.161 223.003 113.241C222.923 113.321 222.883 113.428 222.883 113.561C222.883 113.688 222.923 113.795 223.003 113.881C223.09 113.961 223.197 114.001 223.323 114.001Z" fill="black"/>
<path d="M227.621 108.161C227.228 107.981 226.644 107.831 225.871 107.711C225.091 107.585 224.354 107.521 223.661 107.521C223.261 107.521 222.908 107.548 222.601 107.601C222.601 107.181 222.701 106.811 222.901 106.491C223.101 106.171 223.381 105.925 223.741 105.751C224.101 105.571 224.521 105.481 225.001 105.481C225.808 105.481 226.441 105.718 226.901 106.191C227.354 106.665 227.594 107.321 227.621 108.161ZM226.461 107.141C226.334 106.861 226.151 106.648 225.911 106.501C225.664 106.355 225.378 106.281 225.051 106.281C224.758 106.281 224.504 106.335 224.291 106.441C224.071 106.541 223.924 106.685 223.851 106.871C223.938 106.865 224.074 106.861 224.261 106.861C224.641 106.861 225.028 106.888 225.421 106.941C225.814 106.988 226.161 107.055 226.461 107.141Z" fill="black"/>
<rect x="171.884" y="129.787" width="55.71" height="22.71" rx="3.855" fill="white" stroke="#2C2C2C" stroke-width="2.29"/>
<rect x="166.739" y="172.642" width="20" height="12" rx="2" fill="#F5F5F5"/>
<rect x="166.739" y="186.642" width="20" height="12" rx="2" fill="#F5F5F5"/>
<rect x="166.739" y="200.642" width="20" height="12" rx="2" fill="#F5F5F5"/>
<rect x="189.739" y="172.642" width="20" height="12" rx="2" fill="#F5F5F5"/>
<rect x="189.739" y="186.642" width="20" height="12" rx="2" fill="#F5F5F5"/>
<rect x="189.739" y="200.642" width="20" height="12" rx="2" fill="#F5F5F5"/>
<rect x="212.739" y="172.642" width="20" height="12" rx="2" fill="#F5F5F5"/>
<rect x="212.739" y="186.642" width="20" height="12" rx="2" fill="#F5F5F5"/>
<rect x="212.739" y="200.642" width="20" height="12" rx="2" fill="#F5F5F5"/>
<path d="M176.603 181.04V177.041C175.859 177.612 175.358 177.897 175.1 177.897C174.977 177.897 174.867 177.849 174.77 177.752C174.677 177.653 174.63 177.539 174.63 177.41C174.63 177.26 174.677 177.15 174.77 177.08C174.864 177.01 175.03 176.919 175.267 176.808C175.621 176.641 175.904 176.465 176.115 176.28C176.329 176.096 176.518 175.889 176.682 175.661C176.846 175.432 176.953 175.292 177.003 175.239C177.052 175.186 177.146 175.16 177.284 175.16C177.439 175.16 177.564 175.22 177.657 175.34C177.751 175.46 177.798 175.625 177.798 175.836V180.868C177.798 181.457 177.597 181.751 177.196 181.751C177.017 181.751 176.874 181.691 176.765 181.571C176.657 181.451 176.603 181.274 176.603 181.04Z" fill="#2C2C2C"/>
<path d="M177.214 195.083V194.266H175.008C174.729 194.266 174.52 194.203 174.379 194.077C174.241 193.951 174.173 193.78 174.173 193.563C174.173 193.507 174.183 193.452 174.203 193.396C174.224 193.337 174.255 193.277 174.296 193.216C174.337 193.151 174.379 193.09 174.423 193.031C174.467 192.973 174.521 192.901 174.586 192.816L176.915 189.7C177.067 189.495 177.192 189.347 177.288 189.256C177.388 189.163 177.507 189.116 177.644 189.116C178.09 189.116 178.312 189.371 178.312 189.88V193.282H178.501C178.727 193.282 178.907 193.312 179.042 193.374C179.179 193.436 179.248 193.57 179.248 193.778C179.248 193.948 179.193 194.073 179.081 194.152C178.97 194.228 178.803 194.266 178.58 194.266H178.312V195.083C178.312 195.309 178.262 195.478 178.163 195.589C178.063 195.697 177.93 195.751 177.763 195.751C177.599 195.751 177.466 195.696 177.363 195.584C177.263 195.47 177.214 195.303 177.214 195.083ZM175.324 193.282H177.214V190.729L175.324 193.282Z" fill="#2C2C2C"/>
<path d="M175.465 203.261H178.391C178.673 203.261 178.876 203.305 179.002 203.393C179.128 203.48 179.191 203.625 179.191 203.828C179.191 203.951 179.116 204.113 178.967 204.315C178.821 204.518 178.652 204.742 178.462 204.988C178.274 205.231 178.079 205.534 177.877 205.897C177.678 206.261 177.495 206.705 177.328 207.229C177.258 207.46 177.208 207.652 177.178 207.805C177.149 207.957 177.117 208.155 177.082 208.398C177.047 208.641 177.016 208.827 176.99 208.956C176.928 209.255 176.84 209.463 176.726 209.58C176.615 209.694 176.465 209.751 176.278 209.751C176.099 209.751 175.955 209.69 175.847 209.567C175.739 209.441 175.684 209.256 175.684 209.013C175.684 208.826 175.724 208.571 175.803 208.249C175.882 207.926 176.011 207.541 176.19 207.093C176.368 206.642 176.591 206.18 176.858 205.708C177.127 205.234 177.447 204.762 177.816 204.293H175.465C175.219 204.293 175.034 204.25 174.911 204.162C174.791 204.071 174.731 203.93 174.731 203.74C174.731 203.538 174.795 203.407 174.924 203.349C175.053 203.29 175.233 203.261 175.465 203.261Z" fill="#2C2C2C"/>
<path d="M199.071 180.604H201.365C201.594 180.604 201.768 180.651 201.888 180.745C202.008 180.839 202.068 180.966 202.068 181.127C202.068 181.271 202.02 181.393 201.923 181.492C201.829 181.592 201.686 181.642 201.492 181.642H198.258C198.038 181.642 197.867 181.582 197.744 181.461C197.621 181.338 197.559 181.195 197.559 181.031C197.559 180.925 197.599 180.786 197.678 180.613C197.757 180.438 197.844 180.3 197.937 180.2C198.327 179.796 198.678 179.45 198.992 179.163C199.305 178.873 199.53 178.683 199.664 178.592C199.905 178.422 200.104 178.252 200.262 178.082C200.423 177.909 200.545 177.733 200.627 177.555C200.712 177.373 200.754 177.196 200.754 177.023C200.754 176.835 200.709 176.668 200.618 176.522C200.53 176.373 200.408 176.257 200.253 176.175C200.101 176.093 199.934 176.052 199.752 176.052C199.368 176.052 199.067 176.22 198.847 176.557C198.818 176.601 198.768 176.721 198.698 176.917C198.63 177.114 198.552 177.265 198.465 177.37C198.38 177.476 198.254 177.528 198.087 177.528C197.94 177.528 197.819 177.48 197.722 177.383C197.625 177.287 197.577 177.155 197.577 176.988C197.577 176.786 197.622 176.575 197.713 176.355C197.804 176.135 197.939 175.936 198.117 175.757C198.299 175.579 198.528 175.435 198.803 175.327C199.081 175.215 199.406 175.16 199.779 175.16C200.227 175.16 200.609 175.23 200.926 175.371C201.131 175.464 201.311 175.593 201.466 175.757C201.621 175.921 201.741 176.112 201.826 176.329C201.914 176.542 201.958 176.765 201.958 176.997C201.958 177.36 201.867 177.691 201.686 177.99C201.507 178.286 201.324 178.519 201.136 178.688C200.949 178.855 200.634 179.119 200.192 179.479C199.752 179.84 199.45 180.12 199.286 180.319C199.216 180.398 199.144 180.493 199.071 180.604Z" fill="#2C2C2C"/>
<path d="M183.341 140.728C183.82 140.728 184.231 140.587 184.575 140.306C184.924 140.024 185.098 139.621 185.098 139.095C185.098 138.694 184.96 138.35 184.684 138.063C184.408 137.772 184.036 137.626 183.567 137.626C183.249 137.626 182.986 137.67 182.778 137.759C182.575 137.847 182.413 137.965 182.294 138.11C182.174 138.256 182.059 138.444 181.95 138.673C181.846 138.902 181.749 139.118 181.661 139.321C181.609 139.431 181.515 139.517 181.38 139.579C181.244 139.642 181.088 139.673 180.911 139.673C180.703 139.673 180.51 139.59 180.333 139.423C180.161 139.251 180.075 139.024 180.075 138.743C180.075 138.472 180.156 138.188 180.317 137.892C180.484 137.59 180.723 137.303 181.036 137.032C181.354 136.761 181.747 136.545 182.216 136.384C182.684 136.217 183.208 136.134 183.786 136.134C184.291 136.134 184.752 136.204 185.169 136.345C185.585 136.48 185.947 136.678 186.255 136.938C186.562 137.199 186.794 137.501 186.95 137.845C187.106 138.188 187.184 138.558 187.184 138.954C187.184 139.475 187.07 139.923 186.841 140.298C186.617 140.668 186.294 141.03 185.872 141.384C186.278 141.603 186.619 141.853 186.895 142.134C187.177 142.415 187.387 142.728 187.528 143.071C187.669 143.41 187.739 143.777 187.739 144.173C187.739 144.647 187.643 145.105 187.45 145.548C187.262 145.991 186.984 146.386 186.614 146.735C186.244 147.079 185.804 147.35 185.294 147.548C184.788 147.741 184.229 147.837 183.614 147.837C182.989 147.837 182.429 147.725 181.934 147.501C181.44 147.277 181.031 146.998 180.708 146.665C180.39 146.326 180.148 145.978 179.981 145.618C179.82 145.259 179.739 144.962 179.739 144.728C179.739 144.425 179.835 144.183 180.028 144.001C180.226 143.813 180.471 143.72 180.762 143.72C180.908 143.72 181.049 143.764 181.184 143.853C181.32 143.936 181.408 144.037 181.45 144.157C181.721 144.881 182.01 145.42 182.317 145.774C182.63 146.123 183.067 146.298 183.63 146.298C183.953 146.298 184.262 146.22 184.559 146.063C184.861 145.902 185.109 145.665 185.302 145.353C185.499 145.04 185.598 144.678 185.598 144.267C185.598 143.657 185.432 143.181 185.098 142.837C184.765 142.488 184.302 142.313 183.708 142.313C183.604 142.313 183.442 142.324 183.223 142.345C183.005 142.366 182.864 142.376 182.802 142.376C182.515 142.376 182.294 142.306 182.137 142.165C181.981 142.019 181.903 141.819 181.903 141.563C181.903 141.313 181.997 141.113 182.184 140.962C182.372 140.806 182.65 140.728 183.02 140.728H183.341Z" fill="#009688"/>
<path d="M193.966 136.298H199.169C199.669 136.298 200.031 136.376 200.255 136.532C200.479 136.688 200.591 136.946 200.591 137.306C200.591 137.524 200.458 137.813 200.192 138.173C199.932 138.532 199.632 138.931 199.294 139.368C198.96 139.8 198.614 140.34 198.255 140.985C197.9 141.631 197.575 142.42 197.278 143.353C197.153 143.764 197.065 144.105 197.012 144.376C196.96 144.647 196.903 144.998 196.841 145.431C196.778 145.863 196.723 146.194 196.677 146.423C196.567 146.954 196.411 147.324 196.208 147.532C196.01 147.735 195.744 147.837 195.411 147.837C195.093 147.837 194.838 147.728 194.645 147.509C194.453 147.285 194.356 146.957 194.356 146.524C194.356 146.191 194.427 145.738 194.567 145.165C194.708 144.592 194.937 143.907 195.255 143.11C195.572 142.308 195.968 141.488 196.442 140.649C196.921 139.806 197.489 138.967 198.145 138.134H193.966C193.528 138.134 193.2 138.056 192.981 137.899C192.768 137.738 192.661 137.488 192.661 137.149C192.661 136.79 192.775 136.558 193.005 136.454C193.234 136.35 193.554 136.298 193.966 136.298Z" fill="#009688"/>
<path d="M206.505 147.837C206.182 147.837 205.903 147.733 205.669 147.524C205.434 147.316 205.317 147.024 205.317 146.649C205.317 146.332 205.429 146.058 205.653 145.829C205.877 145.6 206.153 145.485 206.481 145.485C206.809 145.485 207.088 145.6 207.317 145.829C207.552 146.053 207.669 146.326 207.669 146.649C207.669 147.019 207.552 147.311 207.317 147.524C207.088 147.733 206.817 147.837 206.505 147.837Z" fill="#009688"/>
<path d="M219.411 138.118H215.7L215.255 140.649C215.994 140.254 216.677 140.056 217.302 140.056C217.802 140.056 218.268 140.149 218.7 140.337C219.137 140.524 219.52 140.785 219.848 141.118C220.177 141.446 220.434 141.837 220.622 142.29C220.809 142.743 220.903 143.23 220.903 143.751C220.903 144.506 220.734 145.194 220.395 145.813C220.057 146.433 219.567 146.925 218.927 147.29C218.291 147.655 217.557 147.837 216.723 147.837C215.791 147.837 215.033 147.665 214.45 147.321C213.872 146.978 213.46 146.584 213.216 146.142C212.976 145.694 212.856 145.303 212.856 144.97C212.856 144.767 212.94 144.574 213.106 144.392C213.278 144.209 213.492 144.118 213.747 144.118C214.184 144.118 214.51 144.371 214.723 144.876C214.932 145.34 215.213 145.701 215.567 145.962C215.921 146.217 216.317 146.345 216.755 146.345C217.156 146.345 217.507 146.241 217.809 146.032C218.111 145.824 218.343 145.537 218.505 145.173C218.671 144.808 218.755 144.394 218.755 143.931C218.755 143.431 218.666 143.004 218.489 142.649C218.312 142.295 218.075 142.032 217.778 141.86C217.481 141.683 217.15 141.595 216.786 141.595C216.338 141.595 216.018 141.649 215.825 141.759C215.632 141.868 215.354 142.061 214.989 142.337C214.63 142.608 214.333 142.743 214.098 142.743C213.843 142.743 213.617 142.652 213.419 142.47C213.221 142.282 213.122 142.071 213.122 141.837C213.122 141.811 213.15 141.634 213.208 141.306L213.864 137.563C213.937 137.116 214.072 136.79 214.27 136.587C214.468 136.384 214.791 136.282 215.239 136.282H219.364C220.177 136.282 220.583 136.592 220.583 137.212C220.583 137.483 220.484 137.701 220.286 137.868C220.088 138.035 219.796 138.118 219.411 138.118Z" fill="#009688"/>
<path d="M201.229 190.285H199.141L198.891 191.708C199.307 191.486 199.691 191.375 200.042 191.375C200.323 191.375 200.586 191.427 200.829 191.533C201.075 191.638 201.29 191.785 201.475 191.972C201.659 192.157 201.804 192.376 201.91 192.631C202.015 192.886 202.068 193.16 202.068 193.453C202.068 193.878 201.973 194.265 201.782 194.613C201.592 194.962 201.317 195.239 200.956 195.444C200.599 195.649 200.186 195.751 199.717 195.751C199.193 195.751 198.766 195.655 198.438 195.461C198.113 195.268 197.882 195.047 197.744 194.798C197.609 194.546 197.542 194.326 197.542 194.139C197.542 194.024 197.589 193.916 197.682 193.813C197.779 193.711 197.899 193.66 198.043 193.66C198.289 193.66 198.472 193.802 198.592 194.086C198.709 194.347 198.867 194.55 199.067 194.697C199.266 194.84 199.489 194.912 199.735 194.912C199.96 194.912 200.158 194.854 200.328 194.736C200.498 194.619 200.628 194.458 200.719 194.253C200.813 194.048 200.86 193.815 200.86 193.554C200.86 193.273 200.81 193.033 200.71 192.833C200.611 192.634 200.477 192.486 200.31 192.39C200.143 192.29 199.957 192.24 199.752 192.24C199.5 192.24 199.32 192.271 199.212 192.333C199.103 192.394 198.947 192.502 198.741 192.658C198.539 192.81 198.372 192.886 198.24 192.886C198.097 192.886 197.969 192.835 197.858 192.732C197.747 192.627 197.691 192.508 197.691 192.376C197.691 192.362 197.707 192.262 197.74 192.078L198.109 189.973C198.15 189.721 198.226 189.538 198.337 189.423C198.448 189.309 198.63 189.252 198.882 189.252H201.202C201.659 189.252 201.888 189.426 201.888 189.775C201.888 189.927 201.832 190.05 201.721 190.144C201.61 190.238 201.446 190.285 201.229 190.285Z" fill="#2C2C2C"/>
<path d="M197.665 204.834C197.665 204.541 197.744 204.266 197.902 204.008C198.063 203.747 198.298 203.539 198.605 203.384C198.916 203.229 199.278 203.151 199.691 203.151C200.039 203.151 200.345 203.196 200.609 203.287C200.873 203.378 201.093 203.504 201.268 203.665C201.444 203.823 201.574 204.003 201.659 204.206C201.744 204.405 201.787 204.617 201.787 204.843C201.787 205.13 201.712 205.386 201.563 205.612C201.416 205.837 201.197 206.022 200.904 206.166C201.153 206.262 201.359 206.39 201.523 206.548C201.687 206.703 201.81 206.885 201.892 207.093C201.977 207.298 202.02 207.526 202.02 207.778C202.02 208.147 201.93 208.483 201.752 208.785C201.573 209.083 201.311 209.318 200.965 209.488C200.619 209.658 200.212 209.743 199.743 209.743C199.257 209.743 198.841 209.658 198.495 209.488C198.15 209.318 197.889 209.085 197.713 208.789C197.537 208.49 197.449 208.156 197.449 207.787C197.449 206.999 197.822 206.458 198.566 206.166C197.965 205.884 197.665 205.44 197.665 204.834ZM200.816 207.743C200.816 207.515 200.769 207.315 200.675 207.146C200.581 206.976 200.449 206.845 200.28 206.754C200.11 206.664 199.919 206.618 199.708 206.618C199.409 206.618 199.159 206.718 198.957 206.917C198.755 207.116 198.654 207.395 198.654 207.752C198.654 207.98 198.7 208.183 198.794 208.358C198.891 208.531 199.021 208.666 199.185 208.763C199.349 208.856 199.532 208.903 199.735 208.903C199.94 208.903 200.124 208.855 200.288 208.758C200.452 208.662 200.581 208.525 200.675 208.35C200.769 208.174 200.816 207.972 200.816 207.743ZM199.717 203.99C199.442 203.99 199.219 204.077 199.049 204.25C198.882 204.419 198.799 204.639 198.799 204.909C198.799 205.158 198.885 205.366 199.058 205.533C199.231 205.697 199.453 205.779 199.726 205.779C199.864 205.779 199.988 205.757 200.099 205.713C200.214 205.669 200.31 205.609 200.389 205.533C200.471 205.454 200.534 205.361 200.578 205.256C200.622 205.147 200.644 205.029 200.644 204.9C200.644 204.727 200.605 204.572 200.526 204.434C200.449 204.296 200.341 204.188 200.2 204.109C200.06 204.03 199.899 203.99 199.717 203.99Z" fill="#2C2C2C"/>
<path d="M222.528 177.752C222.798 177.752 223.029 177.673 223.222 177.515C223.419 177.357 223.517 177.13 223.517 176.834C223.517 176.608 223.439 176.415 223.284 176.254C223.129 176.09 222.919 176.008 222.656 176.008C222.477 176.008 222.329 176.033 222.212 176.083C222.097 176.132 222.007 176.198 221.939 176.28C221.872 176.362 221.807 176.468 221.746 176.597C221.687 176.726 221.633 176.847 221.583 176.961C221.554 177.023 221.501 177.071 221.425 177.106C221.349 177.142 221.261 177.159 221.161 177.159C221.044 177.159 220.936 177.112 220.836 177.019C220.74 176.922 220.691 176.794 220.691 176.636C220.691 176.484 220.737 176.324 220.827 176.157C220.921 175.987 221.056 175.826 221.232 175.674C221.41 175.521 221.632 175.4 221.895 175.309C222.159 175.215 222.453 175.168 222.779 175.168C223.063 175.168 223.322 175.208 223.556 175.287C223.791 175.363 223.994 175.475 224.167 175.621C224.34 175.768 224.47 175.938 224.558 176.131C224.646 176.324 224.69 176.532 224.69 176.755C224.69 177.048 224.626 177.3 224.497 177.511C224.371 177.719 224.189 177.922 223.952 178.122C224.18 178.245 224.372 178.385 224.528 178.543C224.686 178.702 224.804 178.877 224.884 179.071C224.963 179.261 225.002 179.468 225.002 179.69C225.002 179.957 224.948 180.215 224.84 180.464C224.734 180.713 224.577 180.936 224.369 181.132C224.161 181.325 223.914 181.478 223.627 181.589C223.343 181.697 223.028 181.751 222.682 181.751C222.33 181.751 222.015 181.688 221.737 181.562C221.459 181.437 221.229 181.28 221.047 181.092C220.868 180.902 220.732 180.706 220.638 180.503C220.548 180.301 220.502 180.134 220.502 180.002C220.502 179.833 220.556 179.696 220.665 179.594C220.776 179.488 220.914 179.436 221.078 179.436C221.16 179.436 221.239 179.46 221.315 179.51C221.391 179.557 221.441 179.614 221.465 179.682C221.617 180.089 221.78 180.392 221.952 180.591C222.128 180.788 222.374 180.886 222.691 180.886C222.872 180.886 223.047 180.842 223.214 180.754C223.384 180.663 223.523 180.53 223.631 180.354C223.742 180.178 223.798 179.975 223.798 179.743C223.798 179.4 223.704 179.132 223.517 178.939C223.329 178.743 223.069 178.645 222.735 178.645C222.676 178.645 222.585 178.65 222.462 178.662C222.339 178.674 222.26 178.68 222.225 178.68C222.064 178.68 221.939 178.64 221.851 178.561C221.763 178.479 221.719 178.366 221.719 178.223C221.719 178.082 221.772 177.969 221.878 177.884C221.983 177.796 222.14 177.752 222.348 177.752H222.528Z" fill="#2C2C2C"/>
<path d="M221.693 192.157C221.892 191.919 222.109 191.744 222.344 191.629C222.578 191.515 222.84 191.458 223.13 191.458C223.408 191.458 223.665 191.511 223.899 191.616C224.136 191.719 224.343 191.867 224.519 192.06C224.698 192.25 224.835 192.476 224.932 192.737C225.029 192.998 225.077 193.27 225.077 193.554C225.077 193.967 224.982 194.342 224.791 194.679C224.604 195.016 224.34 195.28 224 195.47C223.663 195.658 223.281 195.751 222.853 195.751C222.361 195.751 221.936 195.631 221.579 195.391C221.221 195.151 220.948 194.796 220.757 194.328C220.57 193.856 220.476 193.28 220.476 192.601C220.476 192.047 220.533 191.552 220.647 191.115C220.761 190.679 220.926 190.317 221.139 190.03C221.353 189.743 221.613 189.526 221.917 189.379C222.222 189.233 222.569 189.16 222.959 189.16C223.334 189.16 223.663 189.233 223.948 189.379C224.235 189.526 224.45 189.708 224.594 189.924C224.74 190.141 224.813 190.349 224.813 190.548C224.813 190.668 224.768 190.778 224.677 190.878C224.586 190.975 224.47 191.023 224.33 191.023C224.207 191.023 224.093 190.985 223.987 190.909C223.882 190.83 223.804 190.721 223.754 190.583C223.687 190.408 223.58 190.267 223.433 190.162C223.287 190.053 223.117 189.999 222.924 189.999C222.768 189.999 222.613 190.044 222.458 190.135C222.305 190.223 222.177 190.343 222.071 190.496C221.857 190.806 221.731 191.36 221.693 192.157ZM222.88 194.886C223.176 194.886 223.42 194.766 223.614 194.525C223.807 194.282 223.904 193.964 223.904 193.572C223.904 193.305 223.858 193.077 223.767 192.886C223.677 192.693 223.552 192.546 223.394 192.447C223.236 192.344 223.061 192.293 222.871 192.293C222.689 192.293 222.515 192.341 222.348 192.438C222.184 192.535 222.051 192.675 221.948 192.86C221.848 193.042 221.799 193.255 221.799 193.501C221.799 193.897 221.901 194.227 222.106 194.49C222.311 194.754 222.569 194.886 222.88 194.886Z" fill="#2C2C2C"/>
<path d="M223.728 206.754C223.534 206.983 223.318 207.156 223.077 207.273C222.84 207.387 222.576 207.444 222.286 207.444C222.011 207.444 221.753 207.392 221.513 207.286C221.276 207.178 221.069 207.028 220.893 206.838C220.72 206.645 220.587 206.42 220.493 206.166C220.4 205.908 220.353 205.638 220.353 205.357C220.353 205.055 220.406 204.77 220.511 204.5C220.616 204.228 220.767 203.992 220.964 203.792C221.16 203.593 221.393 203.438 221.662 203.327C221.935 203.215 222.235 203.16 222.563 203.16C222.941 203.16 223.278 203.229 223.574 203.366C223.87 203.504 224.119 203.705 224.321 203.968C224.523 204.229 224.678 204.559 224.787 204.957C224.895 205.355 224.949 205.807 224.949 206.311C224.949 206.873 224.892 207.37 224.778 207.8C224.664 208.228 224.497 208.588 224.277 208.881C224.06 209.171 223.8 209.388 223.495 209.532C223.19 209.672 222.844 209.743 222.458 209.743C222.077 209.743 221.746 209.671 221.465 209.527C221.183 209.381 220.969 209.201 220.823 208.987C220.677 208.77 220.603 208.562 220.603 208.363C220.603 208.24 220.649 208.13 220.74 208.033C220.83 207.937 220.946 207.888 221.087 207.888C221.216 207.888 221.331 207.925 221.434 207.998C221.536 208.068 221.614 208.175 221.667 208.319C221.731 208.495 221.838 208.637 221.988 208.745C222.137 208.851 222.305 208.903 222.493 208.903C222.66 208.903 222.818 208.861 222.968 208.776C223.117 208.691 223.244 208.571 223.35 208.416C223.561 208.102 223.687 207.548 223.728 206.754ZM223.627 205.41C223.627 205.21 223.599 205.027 223.543 204.86C223.49 204.69 223.414 204.544 223.315 204.421C223.218 204.298 223.101 204.201 222.963 204.131C222.828 204.061 222.68 204.025 222.519 204.025C222.241 204.025 222.005 204.146 221.812 204.386C221.618 204.623 221.522 204.938 221.522 205.331C221.522 205.72 221.618 206.031 221.812 206.262C222.005 206.494 222.25 206.609 222.546 206.609C222.727 206.609 222.9 206.562 223.064 206.469C223.231 206.372 223.366 206.233 223.469 206.051C223.574 205.87 223.627 205.656 223.627 205.41Z" fill="#2C2C2C"/>
<path d="M149.414 123.414C150.195 122.633 150.195 121.367 149.414 120.586L136.686 107.858C135.905 107.077 134.639 107.077 133.858 107.858C133.077 108.639 133.077 109.905 133.858 110.686L145.172 122L133.858 133.314C133.077 134.095 133.077 135.361 133.858 136.142C134.639 136.923 135.905 136.923 136.686 136.142L149.414 123.414ZM121 124L148 124L148 120L121 120L121 124Z" fill="#2C2C2C"/>
</svg>
