<svg width="240" height="240" viewBox="0 0 240 240" fill="none" xmlns="http://www.w3.org/2000/svg">
<rect width="240" height="240" fill="white"/>
<path fill-rule="evenodd" clip-rule="evenodd" d="M195.613 110.615L199.965 165.205C200.022 165.9 199.574 166.743 198.966 167.086L181.198 175.782" fill="#7A7A7A"/>
<path d="M195.613 110.615L199.965 165.205C200.022 165.9 199.574 166.743 198.966 167.086L181.198 175.782" stroke="#2C2C2C" stroke-width="2.05274" stroke-linecap="round" stroke-linejoin="round"/>
<path d="M163.966 172.112L178.78 176.196C180.284 176.61 181.767 175.71 182.092 174.184L195.553 111.104C195.803 109.93 195.061 108.749 193.894 108.466L160.817 100.432C159.991 100.231 159.156 100.737 158.952 101.563L152.99 125.74" stroke="#2C2C2C" stroke-width="2.05274" stroke-linecap="round" stroke-linejoin="round"/>
<path d="M164.11 107.206C163.65 107.092 163.184 107.373 163.07 107.834L160.592 117.841C160.478 118.302 160.759 118.767 161.22 118.881L171.227 121.359C171.688 121.473 172.154 121.192 172.268 120.731L174.745 110.724C174.859 110.263 174.578 109.798 174.118 109.684L164.11 107.206ZM177.787 110.592C177.326 110.478 176.861 110.759 176.747 111.219L174.269 121.227C174.155 121.688 174.436 122.153 174.897 122.267L184.904 124.745C185.365 124.859 185.83 124.578 185.944 124.117L188.422 114.11C188.536 113.649 188.255 113.184 187.794 113.069L177.787 110.592ZM164.531 109.08L172.871 111.145L170.806 119.484L162.467 117.42L164.531 109.08ZM178.208 112.466L186.547 114.531L184.483 122.87L176.143 120.806L178.208 112.466ZM165.786 111.161L164.548 116.165L169.551 117.404L170.79 112.4L165.786 111.161ZM179.463 114.547L178.224 119.551L183.228 120.79L184.467 115.786L179.463 114.547ZM160.724 120.883C160.264 120.769 159.798 121.049 159.684 121.51L158.445 126.514L157.834 128.5L158.5 128.5C158.386 128.961 160.685 128.952 161.145 129.066L167.404 131.981C167.865 132.095 168.386 132.461 168.5 132L169.501 131.906L170.12 129.404L171.359 124.401C171.473 123.94 171.192 123.474 170.732 123.36L160.724 120.883ZM174.401 124.269C173.94 124.155 173.475 124.435 173.361 124.896L172.328 129.066L173.996 129.479L174.822 126.143L178.158 126.969L178.571 125.301L174.401 124.269ZM181.073 125.92C180.612 125.806 180.146 126.087 180.032 126.548L179 130.718L180.668 131.13L181.494 127.795L184.829 128.621L185.242 126.953L181.073 125.92ZM161.145 122.757L169.485 124.822L168.453 128.991L167.936 131.076L167 131.353L160.113 129.066L159.597 129.012L160.113 126.927L161.145 122.757ZM162.4 124.838L161.162 129.842L166.165 131.08L167.404 126.077L162.4 124.838ZM175.664 129.892L175.251 131.56L174.417 131.353C173.957 131.239 173.491 131.52 173.377 131.981L172.345 136.15L174.012 136.563L174.838 133.228L176.506 133.64L175.68 136.976L177.348 137.389L178.381 133.219C178.495 132.759 178.214 132.293 177.753 132.179L176.919 131.973L177.332 130.305L175.664 129.892ZM182.336 131.543L180.684 138.215L182.352 138.628L184.004 131.956L182.336 131.543Z" fill="#969696"/>
<path d="M141.962 94.3701C146.913 107.849 140.238 111.366 143.768 119.793C150.606 136.117 141.436 150.095 124.206 151.894" stroke="#2C2C2C" stroke-width="2.05274" stroke-linecap="round" stroke-linejoin="round"/>
<path d="M143.775 119.552C143.775 119.552 130.65 127.723 113.523 119.09" stroke="#2C2C2C" stroke-width="2.05274" stroke-linecap="round" stroke-linejoin="round"/>
<path d="M121.32 122.137C121.32 122.137 127.101 136.925 110.968 140.151" stroke="#2C2C2C" stroke-width="2.05274" stroke-linecap="round" stroke-linejoin="round"/>
<path d="M103.619 122.182C104.033 118.285 111.417 119.001 108.593 126.395" stroke="#2C2C2C" stroke-width="2.05274" stroke-linecap="round" stroke-linejoin="round"/>
<path d="M139.593 109.023C138.118 107.835 135.701 107.958 134.022 109.473" stroke="#2C2C2C" stroke-width="2.05274" stroke-linecap="round" stroke-linejoin="round"/>
<path fill-rule="evenodd" clip-rule="evenodd" d="M133.217 115.372C133.217 113.388 134.433 111.78 135.933 111.78C137.433 111.78 138.649 113.388 138.649 115.372C138.649 117.355 137.433 118.963 135.933 118.963C134.433 118.963 133.217 117.355 133.217 115.372Z" fill="#2C2C2C"/>
<path d="M146.194 179.163C146.194 179.163 149.88 176.414 152.579 176.574C155.992 176.774 146.721 171.324 147.54 168.926C148.586 165.861 158.14 169.529 158.14 169.529L161.353 162.732" stroke="#2C2C2C" stroke-width="2.05274" stroke-linecap="round" stroke-linejoin="round"/>
<path fill-rule="evenodd" clip-rule="evenodd" d="M163.014 176.465C165.816 171.297 170.78 197.558 152.336 210.266L148.549 187.059C148.549 187.059 157.106 187.365 163.014 176.465Z" fill="#009688" stroke="#009688" stroke-width="1.71062" stroke-linecap="round" stroke-linejoin="round"/>
<path d="M161.217 163.011L171.741 137.323C172.578 135.281 171.58 133 169.512 132.229L145.341 123.217" stroke="#2C2C2C" stroke-width="2.05274" stroke-linecap="round" stroke-linejoin="round"/>
<path d="M134.464 149.073L129.515 160.601" stroke="#2C2C2C" stroke-width="2.05274" stroke-linecap="round" stroke-linejoin="round"/>
<path fill-rule="evenodd" clip-rule="evenodd" d="M141.969 49.0148C141.969 30.7812 156.751 16 174.984 16C193.219 16 208 30.7812 208 49.0148C208 67.2484 193.219 82.0297 174.984 82.0297C156.751 82.0297 141.969 67.2484 141.969 49.0148Z" fill="#FFA726"/>
<path d="M106.263 132.129C106.263 132.129 110.699 138.134 112.806 145.304" stroke="#2C2C2C" stroke-width="2.05274" stroke-linecap="round" stroke-linejoin="round"/>
<path d="M149.367 186.954C149.367 186.954 170.745 181.516 161.848 162.609" stroke="#2C2C2C" stroke-width="2.05274" stroke-linecap="round" stroke-linejoin="round"/>
<path fill-rule="evenodd" clip-rule="evenodd" d="M73.7318 142.317C46.7275 150.268 28.5627 184.881 32.5479 193.517C56.9948 246.484 151.216 218.644 152.323 209.456C154.264 193.352 145.587 173.615 131.918 159.496C123.841 151.152 114.02 144.771 103.616 142.263" fill="#009688"/>
<path d="M73.7318 142.317C46.7275 150.268 28.5627 184.881 32.5479 193.517C56.9948 246.484 151.216 218.644 152.323 209.456C154.264 193.352 145.587 173.615 131.918 159.496C123.841 151.152 114.02 144.771 103.616 142.263" stroke="#009688" stroke-width="1.71062" stroke-linecap="round" stroke-linejoin="round"/>
<path fill-rule="evenodd" clip-rule="evenodd" d="M113.344 118.857C114.434 121.363 144.647 111.141 145.561 88.3085C146.109 74.6009 130.481 58.3798 111.291 55.8212C88.6733 52.8054 66.1131 59.7425 55.4238 86.9096C46.3478 109.977 59.7499 141.632 81.8194 147.252C102.226 152.449 109.292 132.229 105.932 132.045C97.9762 131.608 95.6872 124.306 98.1941 118.53C101.768 110.293 110.855 113.132 113.344 118.857Z" fill="#2C2C2C" stroke="#2C2C2C" stroke-width="1.71062" stroke-linecap="round" stroke-linejoin="round"/>
<path d="M174.984 20.3223V26.3094" stroke="#2C2C2C" stroke-width="2.05274" stroke-linecap="round" stroke-linejoin="round"/>
<path d="M203.024 50.0156H197.037" stroke="#2C2C2C" stroke-width="2.05274" stroke-linecap="round" stroke-linejoin="round"/>
<path d="M175.095 33.0879L175.174 51.2023L183.251 42.7332" stroke="#2C2C2C" stroke-width="3.42123" stroke-linecap="round" stroke-linejoin="round"/>
<path fill-rule="evenodd" clip-rule="evenodd" d="M192.344 34.7847H194.743C194.982 34.7847 195.164 34.8338 195.288 34.9316C195.415 35.0296 195.478 35.1629 195.478 35.3314C195.478 35.4814 195.427 35.6085 195.328 35.7127C195.229 35.8169 195.078 35.8689 194.876 35.8689H191.494C191.265 35.8689 191.085 35.8054 190.957 35.6783C190.829 35.5512 190.764 35.4019 190.764 35.2303C190.764 35.1201 190.805 34.9739 190.889 34.7915C190.971 34.6093 191.061 34.4662 191.159 34.362C191.566 33.9395 191.934 33.5773 192.262 33.2756C192.589 32.974 192.823 32.7756 192.965 32.6806C193.215 32.5031 193.426 32.3246 193.591 32.1455C193.759 31.9663 193.886 31.7825 193.973 31.5942C194.06 31.4059 194.105 31.2213 194.105 31.0406C194.105 30.8446 194.057 30.6693 193.964 30.5146C193.87 30.36 193.744 30.2397 193.583 30.154C193.422 30.0683 193.246 30.0254 193.056 30.0254C192.656 30.0254 192.339 30.2014 192.11 30.5536C192.079 30.5997 192.028 30.7252 191.956 30.9303C191.884 31.1356 191.804 31.2933 191.713 31.4035C191.623 31.5138 191.489 31.5689 191.315 31.5689C191.162 31.5689 191.036 31.5184 190.935 31.4173C190.832 31.3162 190.783 31.1785 190.783 31.0039C190.783 30.7926 190.831 30.5721 190.925 30.3424C191.02 30.1126 191.161 29.9045 191.351 29.7177C191.539 29.5307 191.776 29.38 192.067 29.265C192.356 29.1503 192.695 29.0928 193.083 29.0928C193.552 29.0928 193.952 29.1663 194.283 29.3133C194.498 29.4113 194.686 29.5461 194.849 29.7177C195.011 29.8891 195.136 30.0873 195.227 30.3124C195.317 30.5376 195.362 30.7711 195.362 31.0131C195.362 31.3929 195.268 31.7381 195.08 32.0491C194.892 32.3599 194.7 32.6033 194.503 32.7795C194.308 32.9555 193.98 33.2319 193.518 33.6086C193.058 33.9853 192.741 34.2778 192.57 34.4862C192.497 34.5688 192.421 34.6684 192.344 34.7847Z" fill="#FFA726"/>
<path fill-rule="evenodd" clip-rule="evenodd" d="M174.858 72.0013C175.067 71.7533 175.293 71.5694 175.538 71.45C175.783 71.3306 176.057 71.2709 176.36 71.2709C176.651 71.2709 176.92 71.3253 177.167 71.4339C177.413 71.5427 177.629 71.6973 177.815 71.898C178 72.0985 178.143 72.3351 178.244 72.6077C178.345 72.8802 178.396 73.1651 178.396 73.4622C178.396 73.8939 178.297 74.286 178.099 74.6382C177.902 74.9905 177.626 75.2654 177.272 75.4628C176.919 75.6603 176.518 75.7592 176.071 75.7592C175.556 75.7592 175.112 75.6336 174.739 75.3824C174.365 75.1312 174.08 74.76 173.882 74.2684C173.685 73.7768 173.586 73.1758 173.586 72.4652C173.586 71.8864 173.645 71.3689 173.765 70.9125C173.884 70.4561 174.056 70.0779 174.279 69.7779C174.503 69.4777 174.774 69.251 175.093 69.0979C175.411 68.9448 175.774 68.8682 176.181 68.8682C176.573 68.8682 176.919 68.9448 177.217 69.0979C177.516 69.251 177.741 69.4409 177.893 69.6675C178.044 69.8942 178.12 70.1116 178.12 70.32C178.12 70.4455 178.072 70.5596 177.978 70.6621C177.883 70.7647 177.762 70.816 177.615 70.816C177.486 70.816 177.366 70.7755 177.256 70.6942C177.146 70.6132 177.065 70.5006 177.013 70.3567C176.942 70.1728 176.831 70.0252 176.677 69.9133C176.524 69.8016 176.347 69.7457 176.145 69.7457C175.982 69.7457 175.821 69.7924 175.66 69.8858C175.499 69.9792 175.364 70.1055 175.253 70.2647C175.03 70.5894 174.898 71.1683 174.858 72.0013ZM176.099 74.8541C176.408 74.8541 176.664 74.7279 176.866 74.4752C177.068 74.2224 177.169 73.8909 177.169 73.4805C177.169 73.2018 177.122 72.9622 177.027 72.7615C176.932 72.561 176.801 72.4079 176.636 72.3022C176.471 72.1965 176.288 72.1436 176.089 72.1436C175.899 72.1436 175.718 72.1943 175.545 72.2954C175.372 72.3963 175.233 72.5426 175.127 72.734C175.021 72.9254 174.969 73.1498 174.969 73.4071C174.969 73.8206 175.076 74.1651 175.29 74.4407C175.504 74.7162 175.774 74.8541 176.099 74.8541Z" fill="#FFA726"/>
<path fill-rule="evenodd" clip-rule="evenodd" d="M150.742 51.5012V47.3207C149.964 47.918 149.441 48.2165 149.171 48.2165C149.042 48.2165 148.928 48.1652 148.829 48.0627C148.729 47.9601 148.679 47.8414 148.679 47.7066C148.679 47.5504 148.728 47.4356 148.826 47.3621C148.924 47.2885 149.098 47.1936 149.346 47.0773C149.716 46.9028 150.013 46.7189 150.235 46.5259C150.457 46.333 150.653 46.1171 150.825 45.8783C150.996 45.6393 151.108 45.4924 151.16 45.4373C151.212 45.382 151.31 45.3545 151.454 45.3545C151.617 45.3545 151.747 45.4173 151.845 45.5428C151.943 45.6684 151.992 45.8415 151.992 46.062V51.3221C151.992 51.9376 151.782 52.2454 151.362 52.2454C151.175 52.2454 151.025 52.1826 150.912 52.057C150.799 51.9315 150.742 51.7462 150.742 51.5012Z" fill="#FFA726"/>
<path fill-rule="evenodd" clip-rule="evenodd" d="M158.823 48.8278C158.823 49.3301 158.792 49.762 158.731 50.1233C158.67 50.4847 158.556 50.8125 158.391 51.1064C158.183 51.4678 157.913 51.7465 157.582 51.9425C157.252 52.1386 156.884 52.2366 156.48 52.2366C156.014 52.2366 155.597 52.1049 155.228 51.8414C154.859 51.578 154.581 51.2136 154.394 50.7482C154.299 50.494 154.23 50.2129 154.185 49.9052C154.141 49.5973 154.119 49.2642 154.119 48.906C154.119 48.4435 154.143 48.0269 154.192 47.6564C154.241 47.2859 154.318 46.9674 154.422 46.7009C154.603 46.2599 154.865 45.9237 155.21 45.6924C155.554 45.4612 155.965 45.3457 156.443 45.3457C156.759 45.3457 157.045 45.3969 157.302 45.4995C157.56 45.6021 157.785 45.7521 157.98 45.9497C158.174 46.1473 158.339 46.3916 158.474 46.6825C158.707 47.1879 158.823 47.9029 158.823 48.8278ZM157.564 48.736C157.564 48.1756 157.53 47.7168 157.463 47.3601C157.396 47.0033 157.282 46.7337 157.123 46.5515C156.964 46.3693 156.743 46.2782 156.462 46.2782C156.057 46.2782 155.776 46.4819 155.619 46.8892C155.461 47.2965 155.382 47.9243 155.382 48.7728C155.382 49.3485 155.416 49.8202 155.483 50.1876C155.55 50.5552 155.664 50.833 155.823 51.0214C155.982 51.2099 156.198 51.3039 156.471 51.3039C156.752 51.3039 156.973 51.2059 157.132 51.0099C157.292 50.814 157.403 50.5337 157.468 50.1693C157.532 49.8048 157.564 49.327 157.564 48.736Z" fill="#FFA726"/>
<path d="M146.19 133.217C145.866 133.097 145.507 133.262 145.387 133.586L142.78 140.618C142.66 140.942 142.825 141.302 143.149 141.422L150.181 144.028C150.505 144.149 150.864 143.983 150.984 143.66L153.591 136.627C153.711 136.303 153.546 135.944 153.222 135.824L146.19 133.217ZM155.801 136.78C155.477 136.66 155.118 136.825 154.998 137.149L152.391 144.181C152.271 144.505 152.436 144.864 152.76 144.984L159.792 147.591C160.116 147.711 160.475 147.546 160.595 147.222L163.202 140.19C163.322 139.866 163.157 139.507 162.833 139.387L155.801 136.78ZM146.341 134.607L152.202 136.779L150.029 142.639L144.169 140.467L146.341 134.607ZM155.952 138.169L161.813 140.341L159.64 146.202L153.78 144.029L155.952 138.169ZM147.079 136.213L145.776 139.729L149.292 141.033L150.595 137.516L147.079 136.213ZM156.69 139.776L155.387 143.292L158.903 144.595L160.206 141.079L156.69 139.776ZM142.627 142.828C142.304 142.708 141.944 142.873 141.824 143.197L139.217 150.229C139.097 150.553 139.262 150.913 139.586 151.033L146.618 153.639C146.942 153.759 147.302 153.594 147.422 153.271L150.029 146.238C150.149 145.914 149.983 145.555 149.66 145.435L142.627 142.828ZM152.238 146.391C151.914 146.271 151.555 146.436 151.435 146.76L150.349 149.69L151.521 150.124L152.39 147.78L154.734 148.649L155.168 147.477L152.238 146.391ZM156.927 148.129C156.603 148.009 156.243 148.174 156.123 148.497L155.037 151.428L156.209 151.862L157.078 149.518L159.422 150.387L159.857 149.215L156.927 148.129ZM142.779 144.217L148.639 146.39L146.467 152.25L140.607 150.078L142.779 144.217ZM143.516 145.824L142.213 149.34L145.729 150.644L147.033 147.127L143.516 145.824ZM152.693 150.559L152.258 151.731L151.672 151.514C151.349 151.393 150.989 151.559 150.869 151.882L149.783 154.812L150.955 155.247L151.824 152.903L152.996 153.337L152.127 155.681L153.299 156.116L154.385 153.186C154.505 152.862 154.34 152.502 154.017 152.382L153.431 152.165L153.865 150.993L152.693 150.559ZM157.381 152.297L155.643 156.985L156.815 157.419L158.553 152.731L157.381 152.297Z" fill="#2C2C2C"/>
<line x1="199.736" y1="165.99" x2="184.736" y2="161.99" stroke="#2C2C2C" stroke-width="2.05"/>
<circle cx="152" cy="131" r="1" fill="#2C2C2C"/>
<rect x="154.323" y="131" width="8" height="1.5" rx="0.75" transform="rotate(18.8271 154.323 131)" fill="#2C2C2C"/>
</svg>
